{
	"patcher" : 	{
		"fileversion" : 1,
		"appversion" : 		{
			"major" : 7,
			"minor" : 3,
			"revision" : 5,
			"architecture" : "x64",
			"modernui" : 1
		}
,
		"rect" : [ 42.0, 85.0, 1298.0, 617.0 ],
		"editing_bgcolor" : [ 0.9, 0.9, 0.9, 1.0 ],
		"bglocked" : 0,
		"openinpresentation" : 0,
		"default_fontsize" : 12.0,
		"default_fontface" : 0,
		"default_fontname" : "Arial",
		"gridonopen" : 1,
		"gridsize" : [ 15.0, 15.0 ],
		"gridsnaponopen" : 1,
		"objectsnaponopen" : 1,
		"statusbarvisible" : 2,
		"toolbarvisible" : 1,
		"lefttoolbarpinned" : 0,
		"toptoolbarpinned" : 0,
		"righttoolbarpinned" : 0,
		"bottomtoolbarpinned" : 0,
		"toolbars_unpinned_last_save" : 0,
		"tallnewobj" : 0,
		"boxanimatetime" : 200,
		"enablehscroll" : 1,
		"enablevscroll" : 1,
		"devicewidth" : 0.0,
		"description" : "",
		"digest" : "",
		"tags" : "",
		"style" : "",
		"subpatcher_template" : "",
		"boxes" : [ 			{
				"box" : 				{
					"id" : "obj-3",
					"maxclass" : "newobj",
					"numinlets" : 1,
					"numoutlets" : 0,
					"patching_rect" : [ 66.0, 768.0, 37.0, 22.0 ],
					"presentation_rect" : [ 18.0, 406.0, 37.0, 22.0 ],
					"style" : "",
					"text" : "out 1"
				}

			}
, 			{
				"box" : 				{
					"id" : "obj-11",
					"maxclass" : "newobj",
					"numinlets" : 0,
					"numoutlets" : 1,
					"outlettype" : [ "" ],
					"patching_rect" : [ 50.0, 14.0, 30.0, 22.0 ],
					"style" : "",
					"text" : "in 1"
				}

			}
, 			{
				"box" : 				{
					"id" : "obj-12",
					"maxclass" : "newobj",
					"numinlets" : 0,
					"numoutlets" : 1,
					"outlettype" : [ "" ],
					"patching_rect" : [ 130.0, 14.0, 30.0, 22.0 ],
					"style" : "",
					"text" : "in 2"
				}

			}
, 			{
				"box" : 				{
					"id" : "obj-6",
					"maxclass" : "newobj",
					"numinlets" : 1,
					"numoutlets" : 0,
					"patching_rect" : [ 336.0, 677.0, 37.0, 22.0 ],
					"style" : "",
					"text" : "out 2"
				}

			}
, 			{
				"box" : 				{
					"code" : "require (\"ffsFreqDelayLibrary.genexpr\");\r\n\r\nHistory outFlag(0.0);\r\n\r\n//for fx mixer\r\nParam width(1, min=0.0, max=2.0);\r\nParam haas(0.0, min=0.0, max=20.0);\r\nParam bal(0.5, min=0.0, max=1.0);\r\nParam gain(1);\r\nParam drywet(0.5, min=0.0, max=1.0);\r\n\r\n//fx params\r\nParam dTime(11025, min=0);\t\t\r\nParam fb(0);\r\n/* \r\nmode 0 = stereo\r\nmode 1 = pingpong LR\r\nmode 2 = pingpong RL\r\nmode 3 = reverse\r\nmode 4 = reverse pp LR\r\nmode 5 = rev pp RL\r\nmode 6 = glitch\r\nmode 7 = glitch pingpong LR\r\nmode 8 = glitch pingpong RL\r\n*/\r\nParam mode(0);\r\nParam pShift(0, min=0, max=2); //mode\r\nParam pSA(0.); // amount\r\nParam filter(0, min=0, max=1); //switch\r\nParam fc(1500., min=0., max=7000.); \r\nParam xfade(0., min=0., max=.25);\r\nParam gMult(.2);\r\n\r\n\r\ndryL = in1;\r\ndryR = in2;\r\n\r\ninFlag = dryL || dryR;\r\n\r\n//effect\r\nyL = 0;\r\nyR = 0;\r\n//w, wb, r = 0;\r\nif (inFlag == 1 || outFlag == 1){\r\n        yL, yR  = freqDelay(dryL, dryR, \r\n                                dTime=dTime, fb=fb, mode=mode, pS=pShift, pSA=pSA, filter=filter, fc=fc, xfade=xfade, gMult=gMult,\r\n                                    width=width, haas=haas, bal=bal, gain=gain, drywet=drywet);\r\n   }\r\n    else{\r\n        yL = 0;\r\n        yR = 0;\r\n}\r\noutFlag = aCheckStereoMin(yL, yR, inFlag, .95, .000001, dTime);\r\n\r\nout1 = yL;\r\nout2 = yR;\r\n\r\n\r\n",
					"fontface" : 0,
					"fontname" : "Arial",
					"fontsize" : 12.0,
					"id" : "obj-66",
					"maxclass" : "codebox",
					"numinlets" : 2,
					"numoutlets" : 2,
					"outlettype" : [ "", "" ],
					"patching_rect" : [ 50.0, 109.0, 1198.0, 406.399994 ],
					"style" : ""
				}

			}
 ],
		"lines" : [ 			{
				"patchline" : 				{
					"destination" : [ "obj-66", 0 ],
					"source" : [ "obj-11", 0 ]
				}

			}
, 			{
				"patchline" : 				{
					"destination" : [ "obj-66", 1 ],
					"source" : [ "obj-12", 0 ]
				}

			}
, 			{
				"patchline" : 				{
					"destination" : [ "obj-3", 0 ],
					"source" : [ "obj-66", 0 ]
				}

			}
, 			{
				"patchline" : 				{
					"destination" : [ "obj-6", 0 ],
					"source" : [ "obj-66", 1 ]
				}

			}
 ]
	}

}
