{
	"patcher" : 	{
		"fileversion" : 1,
		"appversion" : 		{
			"major" : 7,
			"minor" : 3,
			"revision" : 5,
			"architecture" : "x64",
			"modernui" : 1
		}
,
		"rect" : [ 42.0, 85.0, 1298.0, 617.0 ],
		"bglocked" : 0,
		"openinpresentation" : 0,
		"default_fontsize" : 12.0,
		"default_fontface" : 0,
		"default_fontname" : "Arial",
		"gridonopen" : 1,
		"gridsize" : [ 15.0, 15.0 ],
		"gridsnaponopen" : 1,
		"objectsnaponopen" : 1,
		"statusbarvisible" : 2,
		"toolbarvisible" : 1,
		"lefttoolbarpinned" : 0,
		"toptoolbarpinned" : 0,
		"righttoolbarpinned" : 0,
		"bottomtoolbarpinned" : 0,
		"toolbars_unpinned_last_save" : 0,
		"tallnewobj" : 0,
		"boxanimatetime" : 200,
		"enablehscroll" : 1,
		"enablevscroll" : 1,
		"devicewidth" : 0.0,
		"description" : "",
		"digest" : "",
		"tags" : "",
		"style" : "",
		"subpatcher_template" : "",
		"boxes" : [ 			{
				"box" : 				{
					"id" : "obj-9",
					"maxclass" : "newobj",
					"numinlets" : 1,
					"numoutlets" : 1,
					"outlettype" : [ "" ],
					"patching_rect" : [ 941.0, 97.0, 56.0, 22.0 ],
					"style" : "",
					"text" : "deferlow"
				}

			}
, 			{
				"box" : 				{
					"id" : "obj-8",
					"maxclass" : "newobj",
					"numinlets" : 1,
					"numoutlets" : 1,
					"outlettype" : [ "" ],
					"patching_rect" : [ 800.0, 92.0, 56.0, 22.0 ],
					"style" : "",
					"text" : "deferlow"
				}

			}
, 			{
				"box" : 				{
					"id" : "obj-7",
					"maxclass" : "newobj",
					"numinlets" : 1,
					"numoutlets" : 1,
					"outlettype" : [ "" ],
					"patching_rect" : [ 607.0, 86.0, 56.0, 22.0 ],
					"style" : "",
					"text" : "deferlow"
				}

			}
, 			{
				"box" : 				{
					"id" : "obj-6",
					"maxclass" : "newobj",
					"numinlets" : 1,
					"numoutlets" : 1,
					"outlettype" : [ "" ],
					"patching_rect" : [ 462.0, 92.0, 56.0, 22.0 ],
					"style" : "",
					"text" : "deferlow"
				}

			}
, 			{
				"box" : 				{
					"id" : "obj-5",
					"maxclass" : "newobj",
					"numinlets" : 2,
					"numoutlets" : 1,
					"outlettype" : [ "" ],
					"patching_rect" : [ 941.0, 136.0, 109.0, 22.0 ],
					"style" : "",
					"text" : "qlim 100 @defer 1"
				}

			}
, 			{
				"box" : 				{
					"id" : "obj-4",
					"maxclass" : "newobj",
					"numinlets" : 2,
					"numoutlets" : 1,
					"outlettype" : [ "" ],
					"patching_rect" : [ 800.0, 130.0, 109.0, 22.0 ],
					"style" : "",
					"text" : "qlim 100 @defer 1"
				}

			}
, 			{
				"box" : 				{
					"id" : "obj-2",
					"maxclass" : "newobj",
					"numinlets" : 2,
					"numoutlets" : 1,
					"outlettype" : [ "" ],
					"patching_rect" : [ 607.0, 126.0, 109.0, 22.0 ],
					"style" : "",
					"text" : "qlim 100 @defer 1"
				}

			}
, 			{
				"box" : 				{
					"id" : "obj-1",
					"maxclass" : "newobj",
					"numinlets" : 2,
					"numoutlets" : 1,
					"outlettype" : [ "" ],
					"patching_rect" : [ 462.0, 130.0, 109.0, 22.0 ],
					"style" : "",
					"text" : "qlim 100 @defer 1"
				}

			}
, 			{
				"box" : 				{
					"id" : "obj-15",
					"maxclass" : "newobj",
					"numinlets" : 6,
					"numoutlets" : 1,
					"outlettype" : [ "" ],
					"patching_rect" : [ 607.0, 172.5, 139.0, 22.0 ],
					"presentation_rect" : [ 607.0, 138.5, 139.0, 22.0 ],
					"style" : "",
					"text" : "scale 0.01 0.99 0.1 0.89"
				}

			}
, 			{
				"box" : 				{
					"id" : "obj-164",
					"maxclass" : "newobj",
					"numinlets" : 0,
					"numoutlets" : 1,
					"outlettype" : [ "" ],
					"patcher" : 					{
						"fileversion" : 1,
						"appversion" : 						{
							"major" : 7,
							"minor" : 3,
							"revision" : 5,
							"architecture" : "x64",
							"modernui" : 1
						}
,
						"rect" : [ 531.0, 215.0, 640.0, 480.0 ],
						"bglocked" : 0,
						"openinpresentation" : 0,
						"default_fontsize" : 12.0,
						"default_fontface" : 0,
						"default_fontname" : "Arial",
						"gridonopen" : 1,
						"gridsize" : [ 15.0, 15.0 ],
						"gridsnaponopen" : 1,
						"objectsnaponopen" : 1,
						"statusbarvisible" : 2,
						"toolbarvisible" : 1,
						"lefttoolbarpinned" : 0,
						"toptoolbarpinned" : 0,
						"righttoolbarpinned" : 0,
						"bottomtoolbarpinned" : 0,
						"toolbars_unpinned_last_save" : 0,
						"tallnewobj" : 0,
						"boxanimatetime" : 200,
						"enablehscroll" : 1,
						"enablevscroll" : 1,
						"devicewidth" : 0.0,
						"description" : "",
						"digest" : "",
						"tags" : "",
						"style" : "",
						"subpatcher_template" : "",
						"boxes" : [ 							{
								"box" : 								{
									"id" : "obj-134",
									"maxclass" : "newobj",
									"numinlets" : 1,
									"numoutlets" : 1,
									"outlettype" : [ "bang" ],
									"patching_rect" : [ 50.0, 100.0, 60.0, 22.0 ],
									"presentation_rect" : [ 50.0, 100.0, 60.0, 22.0 ],
									"style" : "",
									"text" : "loadbang"
								}

							}
, 							{
								"box" : 								{
									"fontname" : "Arial",
									"fontsize" : 12.0,
									"id" : "obj-82",
									"linecount" : 5,
									"maxclass" : "message",
									"numinlets" : 2,
									"numoutlets" : 1,
									"outlettype" : [ "" ],
									"patching_rect" : [ 50.0, 149.5, 215.0, 76.0 ],
									"presentation_linecount" : 5,
									"presentation_rect" : [ 50.0, 149.5, 215.0, 76.0 ],
									"style" : "",
									"text" : "definerange -1.1 1.1 linear, definedomain -100 100 linear, definepoint none, defineline linear, definenumber none, definethickness 2., defineygrid 0. 1. -1."
								}

							}
, 							{
								"box" : 								{
									"comment" : "",
									"id" : "obj-162",
									"index" : 1,
									"maxclass" : "outlet",
									"numinlets" : 1,
									"numoutlets" : 0,
									"patching_rect" : [ 80.0, 378.5, 30.0, 30.0 ],
									"presentation_rect" : [ 80.0, 378.5, 30.0, 30.0 ],
									"style" : ""
								}

							}
 ],
						"lines" : [ 							{
								"patchline" : 								{
									"destination" : [ "obj-82", 0 ],
									"source" : [ "obj-134", 0 ]
								}

							}
, 							{
								"patchline" : 								{
									"destination" : [ "obj-162", 0 ],
									"source" : [ "obj-82", 0 ]
								}

							}
 ]
					}
,
					"patching_rect" : [ 311.0, 732.0, 61.0, 22.0 ],
					"presentation_rect" : [ 311.0, 732.0, 61.0, 22.0 ],
					"saved_object_attributes" : 					{
						"description" : "",
						"digest" : "",
						"globalpatchername" : "",
						"style" : "",
						"tags" : ""
					}
,
					"style" : "",
					"text" : "p"
				}

			}
, 			{
				"box" : 				{
					"id" : "obj-158",
					"maxclass" : "newobj",
					"numinlets" : 6,
					"numoutlets" : 1,
					"outlettype" : [ "" ],
					"patcher" : 					{
						"fileversion" : 1,
						"appversion" : 						{
							"major" : 7,
							"minor" : 3,
							"revision" : 5,
							"architecture" : "x64",
							"modernui" : 1
						}
,
						"rect" : [ 34.0, 77.0, 1298.0, 617.0 ],
						"bglocked" : 0,
						"openinpresentation" : 0,
						"default_fontsize" : 12.0,
						"default_fontface" : 0,
						"default_fontname" : "Arial",
						"gridonopen" : 1,
						"gridsize" : [ 15.0, 15.0 ],
						"gridsnaponopen" : 1,
						"objectsnaponopen" : 1,
						"statusbarvisible" : 2,
						"toolbarvisible" : 1,
						"lefttoolbarpinned" : 0,
						"toptoolbarpinned" : 0,
						"righttoolbarpinned" : 0,
						"bottomtoolbarpinned" : 0,
						"toolbars_unpinned_last_save" : 0,
						"tallnewobj" : 0,
						"boxanimatetime" : 200,
						"enablehscroll" : 1,
						"enablevscroll" : 1,
						"devicewidth" : 0.0,
						"description" : "",
						"digest" : "",
						"tags" : "",
						"style" : "",
						"subpatcher_template" : "",
						"boxes" : [ 							{
								"box" : 								{
									"id" : "obj-133",
									"maxclass" : "newobj",
									"numinlets" : 1,
									"numoutlets" : 1,
									"outlettype" : [ "float" ],
									"patcher" : 									{
										"fileversion" : 1,
										"appversion" : 										{
											"major" : 7,
											"minor" : 3,
											"revision" : 5,
											"architecture" : "x64",
											"modernui" : 1
										}
,
										"rect" : [ -31958.0, -31915.0, 640.0, 480.0 ],
										"bglocked" : 0,
										"openinpresentation" : 0,
										"default_fontsize" : 12.0,
										"default_fontface" : 0,
										"default_fontname" : "Arial",
										"gridonopen" : 1,
										"gridsize" : [ 15.0, 15.0 ],
										"gridsnaponopen" : 1,
										"objectsnaponopen" : 1,
										"statusbarvisible" : 2,
										"toolbarvisible" : 1,
										"lefttoolbarpinned" : 0,
										"toptoolbarpinned" : 0,
										"righttoolbarpinned" : 0,
										"bottomtoolbarpinned" : 0,
										"toolbars_unpinned_last_save" : 0,
										"tallnewobj" : 0,
										"boxanimatetime" : 200,
										"enablehscroll" : 1,
										"enablevscroll" : 1,
										"devicewidth" : 0.0,
										"description" : "",
										"digest" : "",
										"tags" : "",
										"style" : "",
										"subpatcher_template" : "",
										"boxes" : [ 											{
												"box" : 												{
													"id" : "obj-116",
													"maxclass" : "newobj",
													"numinlets" : 2,
													"numoutlets" : 2,
													"outlettype" : [ "bang", "" ],
													"patching_rect" : [ 88.666687, 194.0, 36.0, 22.0 ],
													"presentation_rect" : [ 88.666687, 194.0, 36.0, 22.0 ],
													"style" : "",
													"text" : "sel 1"
												}

											}
, 											{
												"box" : 												{
													"id" : "obj-97",
													"maxclass" : "newobj",
													"numinlets" : 6,
													"numoutlets" : 1,
													"outlettype" : [ "" ],
													"patching_rect" : [ 88.666687, 354.0, 103.0, 22.0 ],
													"presentation_rect" : [ 88.666687, 354.0, 103.0, 22.0 ],
													"style" : "",
													"text" : "scale 0 200 1. -1."
												}

											}
, 											{
												"box" : 												{
													"id" : "obj-96",
													"maxclass" : "newobj",
													"numinlets" : 1,
													"numoutlets" : 2,
													"outlettype" : [ "int", "bang" ],
													"patching_rect" : [ 50.0, 100.0, 190.0, 22.0 ],
													"presentation_rect" : [ 50.0, 100.0, 190.0, 22.0 ],
													"style" : "",
													"text" : "t i b"
												}

											}
, 											{
												"box" : 												{
													"id" : "obj-94",
													"maxclass" : "newobj",
													"numinlets" : 2,
													"numoutlets" : 1,
													"outlettype" : [ "float" ],
													"patching_rect" : [ 88.666687, 398.0, 42.0, 22.0 ],
													"presentation_rect" : [ 88.666687, 398.0, 42.0, 22.0 ],
													"style" : "",
													"text" : "* 0.05"
												}

											}
, 											{
												"box" : 												{
													"id" : "obj-93",
													"maxclass" : "newobj",
													"numinlets" : 2,
													"numoutlets" : 1,
													"outlettype" : [ "float" ],
													"patching_rect" : [ 139.666687, 399.0, 42.0, 22.0 ],
													"presentation_rect" : [ 139.666687, 399.0, 42.0, 22.0 ],
													"style" : "",
													"text" : "* 0.95"
												}

											}
, 											{
												"box" : 												{
													"id" : "obj-92",
													"maxclass" : "newobj",
													"numinlets" : 2,
													"numoutlets" : 1,
													"outlettype" : [ "float" ],
													"patching_rect" : [ 88.666687, 445.0, 70.0, 22.0 ],
													"presentation_rect" : [ 88.666687, 445.0, 70.0, 22.0 ],
													"style" : "",
													"text" : "+ 0."
												}

											}
, 											{
												"box" : 												{
													"id" : "obj-85",
													"maxclass" : "number",
													"numinlets" : 1,
													"numoutlets" : 2,
													"outlettype" : [ "", "bang" ],
													"parameter_enable" : 0,
													"patching_rect" : [ 88.666687, 308.0, 50.0, 22.0 ],
													"presentation_rect" : [ 88.666687, 308.0, 50.0, 22.0 ],
													"style" : ""
												}

											}
, 											{
												"box" : 												{
													"id" : "obj-86",
													"maxclass" : "newobj",
													"numinlets" : 2,
													"numoutlets" : 1,
													"outlettype" : [ "int" ],
													"patching_rect" : [ 88.666687, 230.5, 75.0, 22.0 ],
													"presentation_rect" : [ 88.666687, 230.5, 75.0, 22.0 ],
													"style" : "",
													"text" : "random 200"
												}

											}
, 											{
												"box" : 												{
													"id" : "obj-55",
													"maxclass" : "newobj",
													"numinlets" : 5,
													"numoutlets" : 4,
													"outlettype" : [ "int", "", "", "int" ],
													"patching_rect" : [ 50.0, 156.0, 77.0, 22.0 ],
													"presentation_rect" : [ 50.0, 156.0, 77.0, 22.0 ],
													"style" : "",
													"text" : "counter 1 50"
												}

											}
, 											{
												"box" : 												{
													"comment" : "",
													"id" : "obj-131",
													"index" : 1,
													"maxclass" : "inlet",
													"numinlets" : 0,
													"numoutlets" : 1,
													"outlettype" : [ "" ],
													"patching_rect" : [ 50.0, 40.0, 30.0, 30.0 ],
													"presentation_rect" : [ 50.0, 40.0, 30.0, 30.0 ],
													"style" : ""
												}

											}
, 											{
												"box" : 												{
													"comment" : "",
													"id" : "obj-132",
													"index" : 1,
													"maxclass" : "outlet",
													"numinlets" : 1,
													"numoutlets" : 0,
													"patching_rect" : [ 88.666687, 540.5, 30.0, 30.0 ],
													"presentation_rect" : [ 88.666687, 540.5, 30.0, 30.0 ],
													"style" : ""
												}

											}
 ],
										"lines" : [ 											{
												"patchline" : 												{
													"destination" : [ "obj-86", 0 ],
													"source" : [ "obj-116", 0 ]
												}

											}
, 											{
												"patchline" : 												{
													"destination" : [ "obj-96", 0 ],
													"source" : [ "obj-131", 0 ]
												}

											}
, 											{
												"patchline" : 												{
													"destination" : [ "obj-116", 0 ],
													"source" : [ "obj-55", 2 ]
												}

											}
, 											{
												"patchline" : 												{
													"destination" : [ "obj-97", 0 ],
													"source" : [ "obj-85", 0 ]
												}

											}
, 											{
												"patchline" : 												{
													"destination" : [ "obj-85", 0 ],
													"source" : [ "obj-86", 0 ]
												}

											}
, 											{
												"patchline" : 												{
													"destination" : [ "obj-132", 0 ],
													"order" : 1,
													"source" : [ "obj-92", 0 ]
												}

											}
, 											{
												"patchline" : 												{
													"destination" : [ "obj-93", 0 ],
													"midpoints" : [ 98.166687, 478.0, 197.666687, 478.0, 197.666687, 389.0, 149.166687, 389.0 ],
													"order" : 0,
													"source" : [ "obj-92", 0 ]
												}

											}
, 											{
												"patchline" : 												{
													"destination" : [ "obj-92", 1 ],
													"source" : [ "obj-93", 0 ]
												}

											}
, 											{
												"patchline" : 												{
													"destination" : [ "obj-92", 0 ],
													"source" : [ "obj-94", 0 ]
												}

											}
, 											{
												"patchline" : 												{
													"destination" : [ "obj-55", 0 ],
													"source" : [ "obj-96", 0 ]
												}

											}
, 											{
												"patchline" : 												{
													"destination" : [ "obj-85", 0 ],
													"midpoints" : [ 230.5, 295.0, 98.166687, 295.0 ],
													"source" : [ "obj-96", 1 ]
												}

											}
, 											{
												"patchline" : 												{
													"destination" : [ "obj-94", 0 ],
													"source" : [ "obj-97", 0 ]
												}

											}
 ]
									}
,
									"patching_rect" : [ 335.5, 171.0, 45.0, 22.0 ],
									"presentation_rect" : [ 335.5, 171.0, 45.0, 22.0 ],
									"saved_object_attributes" : 									{
										"description" : "",
										"digest" : "",
										"globalpatchername" : "",
										"style" : "",
										"tags" : ""
									}
,
									"style" : "",
									"text" : "p rand"
								}

							}
, 							{
								"box" : 								{
									"id" : "obj-83",
									"maxclass" : "newobj",
									"numinlets" : 2,
									"numoutlets" : 1,
									"outlettype" : [ "float" ],
									"patcher" : 									{
										"fileversion" : 1,
										"appversion" : 										{
											"major" : 7,
											"minor" : 3,
											"revision" : 5,
											"architecture" : "x64",
											"modernui" : 1
										}
,
										"rect" : [ 92.0, 135.0, 640.0, 480.0 ],
										"bglocked" : 0,
										"openinpresentation" : 0,
										"default_fontsize" : 12.0,
										"default_fontface" : 0,
										"default_fontname" : "Arial",
										"gridonopen" : 1,
										"gridsize" : [ 15.0, 15.0 ],
										"gridsnaponopen" : 1,
										"objectsnaponopen" : 1,
										"statusbarvisible" : 2,
										"toolbarvisible" : 1,
										"lefttoolbarpinned" : 0,
										"toptoolbarpinned" : 0,
										"righttoolbarpinned" : 0,
										"bottomtoolbarpinned" : 0,
										"toolbars_unpinned_last_save" : 0,
										"tallnewobj" : 0,
										"boxanimatetime" : 200,
										"enablehscroll" : 1,
										"enablevscroll" : 1,
										"devicewidth" : 0.0,
										"description" : "",
										"digest" : "",
										"tags" : "",
										"style" : "",
										"subpatcher_template" : "",
										"boxes" : [ 											{
												"box" : 												{
													"fontname" : "Arial",
													"fontsize" : 11.595187,
													"id" : "obj-29",
													"maxclass" : "newobj",
													"numinlets" : 2,
													"numoutlets" : 1,
													"outlettype" : [ "float" ],
													"patching_rect" : [ 50.0, 247.5, 29.5, 22.0 ],
													"presentation_rect" : [ 50.0, 247.5, 29.5, 22.0 ],
													"style" : "",
													"text" : "- 1."
												}

											}
, 											{
												"box" : 												{
													"fontname" : "Arial",
													"fontsize" : 11.595187,
													"id" : "obj-32",
													"maxclass" : "newobj",
													"numinlets" : 2,
													"numoutlets" : 1,
													"outlettype" : [ "float" ],
													"patching_rect" : [ 50.0, 219.5, 34.0, 22.0 ],
													"presentation_rect" : [ 50.0, 219.5, 34.0, 22.0 ],
													"style" : "",
													"text" : "* 2.1"
												}

											}
, 											{
												"box" : 												{
													"fontname" : "Arial",
													"fontsize" : 11.595187,
													"id" : "obj-18",
													"maxclass" : "newobj",
													"numinlets" : 2,
													"numoutlets" : 1,
													"outlettype" : [ "int" ],
													"patching_rect" : [ 50.0, 173.5, 174.0, 22.0 ],
													"presentation_rect" : [ 50.0, 173.5, 174.0, 22.0 ],
													"style" : "",
													"text" : "> 0.5"
												}

											}
, 											{
												"box" : 												{
													"id" : "obj-20",
													"maxclass" : "newobj",
													"numinlets" : 6,
													"numoutlets" : 1,
													"outlettype" : [ "" ],
													"patching_rect" : [ 50.0, 100.0, 112.0, 22.0 ],
													"presentation_rect" : [ 50.0, 100.0, 112.0, 22.0 ],
													"style" : "",
													"text" : "scale 0 200 0.1 0.9"
												}

											}
, 											{
												"box" : 												{
													"comment" : "",
													"id" : "obj-80",
													"index" : 1,
													"maxclass" : "inlet",
													"numinlets" : 0,
													"numoutlets" : 1,
													"outlettype" : [ "" ],
													"patching_rect" : [ 50.0, 40.0, 30.0, 30.0 ],
													"presentation_rect" : [ 50.0, 40.0, 30.0, 30.0 ],
													"style" : ""
												}

											}
, 											{
												"box" : 												{
													"comment" : "",
													"id" : "obj-81",
													"index" : 2,
													"maxclass" : "inlet",
													"numinlets" : 0,
													"numoutlets" : 1,
													"outlettype" : [ "float" ],
													"patching_rect" : [ 205.0, 40.0, 30.0, 30.0 ],
													"presentation_rect" : [ 205.0, 40.0, 30.0, 30.0 ],
													"style" : ""
												}

											}
, 											{
												"box" : 												{
													"comment" : "",
													"id" : "obj-82",
													"index" : 1,
													"maxclass" : "outlet",
													"numinlets" : 1,
													"numoutlets" : 0,
													"patching_rect" : [ 50.0, 384.5, 30.0, 30.0 ],
													"presentation_rect" : [ 50.0, 384.5, 30.0, 30.0 ],
													"style" : ""
												}

											}
 ],
										"lines" : [ 											{
												"patchline" : 												{
													"destination" : [ "obj-32", 0 ],
													"source" : [ "obj-18", 0 ]
												}

											}
, 											{
												"patchline" : 												{
													"destination" : [ "obj-18", 0 ],
													"source" : [ "obj-20", 0 ]
												}

											}
, 											{
												"patchline" : 												{
													"destination" : [ "obj-82", 0 ],
													"source" : [ "obj-29", 0 ]
												}

											}
, 											{
												"patchline" : 												{
													"destination" : [ "obj-29", 0 ],
													"source" : [ "obj-32", 0 ]
												}

											}
, 											{
												"patchline" : 												{
													"destination" : [ "obj-20", 0 ],
													"source" : [ "obj-80", 0 ]
												}

											}
, 											{
												"patchline" : 												{
													"destination" : [ "obj-18", 1 ],
													"source" : [ "obj-81", 0 ]
												}

											}
 ]
									}
,
									"patching_rect" : [ 263.0, 171.0, 57.0, 22.0 ],
									"presentation_rect" : [ 263.0, 171.0, 57.0, 22.0 ],
									"saved_object_attributes" : 									{
										"description" : "",
										"digest" : "",
										"globalpatchername" : "",
										"style" : "",
										"tags" : ""
									}
,
									"style" : "",
									"text" : "p square"
								}

							}
, 							{
								"box" : 								{
									"id" : "obj-73",
									"maxclass" : "newobj",
									"numinlets" : 1,
									"numoutlets" : 1,
									"outlettype" : [ "" ],
									"patcher" : 									{
										"fileversion" : 1,
										"appversion" : 										{
											"major" : 7,
											"minor" : 3,
											"revision" : 5,
											"architecture" : "x64",
											"modernui" : 1
										}
,
										"rect" : [ 0.0, 0.0, 640.0, 480.0 ],
										"bglocked" : 0,
										"openinpresentation" : 0,
										"default_fontsize" : 12.0,
										"default_fontface" : 0,
										"default_fontname" : "Arial",
										"gridonopen" : 1,
										"gridsize" : [ 15.0, 15.0 ],
										"gridsnaponopen" : 1,
										"objectsnaponopen" : 1,
										"statusbarvisible" : 2,
										"toolbarvisible" : 1,
										"lefttoolbarpinned" : 0,
										"toptoolbarpinned" : 0,
										"righttoolbarpinned" : 0,
										"bottomtoolbarpinned" : 0,
										"toolbars_unpinned_last_save" : 0,
										"tallnewobj" : 0,
										"boxanimatetime" : 200,
										"enablehscroll" : 1,
										"enablevscroll" : 1,
										"devicewidth" : 0.0,
										"description" : "",
										"digest" : "",
										"tags" : "",
										"style" : "",
										"subpatcher_template" : "",
										"boxes" : [ 											{
												"box" : 												{
													"id" : "obj-40",
													"maxclass" : "newobj",
													"numinlets" : 3,
													"numoutlets" : 1,
													"outlettype" : [ "" ],
													"patching_rect" : [ 50.0, 138.0, 136.0, 22.0 ],
													"presentation_rect" : [ 50.0, 138.0, 136.0, 22.0 ],
													"style" : "",
													"text" : "pong -1. 1. @mode fold"
												}

											}
, 											{
												"box" : 												{
													"id" : "obj-41",
													"maxclass" : "newobj",
													"numinlets" : 6,
													"numoutlets" : 1,
													"outlettype" : [ "" ],
													"patching_rect" : [ 50.0, 100.0, 103.0, 22.0 ],
													"presentation_rect" : [ 50.0, 100.0, 103.0, 22.0 ],
													"style" : "",
													"text" : "scale 0 200 -2. 2."
												}

											}
, 											{
												"box" : 												{
													"comment" : "",
													"id" : "obj-70",
													"index" : 1,
													"maxclass" : "inlet",
													"numinlets" : 0,
													"numoutlets" : 1,
													"outlettype" : [ "" ],
													"patching_rect" : [ 50.0, 40.0, 30.0, 30.0 ],
													"presentation_rect" : [ 50.0, 40.0, 30.0, 30.0 ],
													"style" : ""
												}

											}
, 											{
												"box" : 												{
													"comment" : "",
													"id" : "obj-71",
													"index" : 1,
													"maxclass" : "outlet",
													"numinlets" : 1,
													"numoutlets" : 0,
													"patching_rect" : [ 50.0, 220.0, 30.0, 30.0 ],
													"presentation_rect" : [ 50.0, 220.0, 30.0, 30.0 ],
													"style" : ""
												}

											}
 ],
										"lines" : [ 											{
												"patchline" : 												{
													"destination" : [ "obj-71", 0 ],
													"source" : [ "obj-40", 0 ]
												}

											}
, 											{
												"patchline" : 												{
													"destination" : [ "obj-40", 0 ],
													"source" : [ "obj-41", 0 ]
												}

											}
, 											{
												"patchline" : 												{
													"destination" : [ "obj-41", 0 ],
													"source" : [ "obj-70", 0 ]
												}

											}
 ]
									}
,
									"patching_rect" : [ 196.5, 171.0, 31.0, 22.0 ],
									"presentation_rect" : [ 196.5, 171.0, 31.0, 22.0 ],
									"saved_object_attributes" : 									{
										"description" : "",
										"digest" : "",
										"globalpatchername" : "",
										"style" : "",
										"tags" : ""
									}
,
									"style" : "",
									"text" : "p tri"
								}

							}
, 							{
								"box" : 								{
									"id" : "obj-69",
									"maxclass" : "newobj",
									"numinlets" : 1,
									"numoutlets" : 1,
									"outlettype" : [ "float" ],
									"patcher" : 									{
										"fileversion" : 1,
										"appversion" : 										{
											"major" : 7,
											"minor" : 3,
											"revision" : 5,
											"architecture" : "x64",
											"modernui" : 1
										}
,
										"rect" : [ 0.0, 0.0, 640.0, 480.0 ],
										"bglocked" : 0,
										"openinpresentation" : 0,
										"default_fontsize" : 12.0,
										"default_fontface" : 0,
										"default_fontname" : "Arial",
										"gridonopen" : 1,
										"gridsize" : [ 15.0, 15.0 ],
										"gridsnaponopen" : 1,
										"objectsnaponopen" : 1,
										"statusbarvisible" : 2,
										"toolbarvisible" : 1,
										"lefttoolbarpinned" : 0,
										"toptoolbarpinned" : 0,
										"righttoolbarpinned" : 0,
										"bottomtoolbarpinned" : 0,
										"toolbars_unpinned_last_save" : 0,
										"tallnewobj" : 0,
										"boxanimatetime" : 200,
										"enablehscroll" : 1,
										"enablevscroll" : 1,
										"devicewidth" : 0.0,
										"description" : "",
										"digest" : "",
										"tags" : "",
										"style" : "",
										"subpatcher_template" : "",
										"boxes" : [ 											{
												"box" : 												{
													"id" : "obj-51",
													"maxclass" : "newobj",
													"numinlets" : 1,
													"numoutlets" : 1,
													"outlettype" : [ "float" ],
													"patching_rect" : [ 50.0, 135.0, 26.0, 22.0 ],
													"presentation_rect" : [ 50.0, 135.0, 26.0, 22.0 ],
													"style" : "",
													"text" : "sin"
												}

											}
, 											{
												"box" : 												{
													"id" : "obj-52",
													"maxclass" : "newobj",
													"numinlets" : 6,
													"numoutlets" : 1,
													"outlettype" : [ "" ],
													"patching_rect" : [ 50.0, 100.0, 129.0, 22.0 ],
													"presentation_rect" : [ 50.0, 100.0, 129.0, 22.0 ],
													"style" : "",
													"text" : "scale 0 200 3.14 -3.14"
												}

											}
, 											{
												"box" : 												{
													"comment" : "",
													"id" : "obj-67",
													"index" : 1,
													"maxclass" : "inlet",
													"numinlets" : 0,
													"numoutlets" : 1,
													"outlettype" : [ "" ],
													"patching_rect" : [ 50.0, 40.0, 30.0, 30.0 ],
													"presentation_rect" : [ 50.0, 40.0, 30.0, 30.0 ],
													"style" : ""
												}

											}
, 											{
												"box" : 												{
													"comment" : "",
													"id" : "obj-68",
													"index" : 1,
													"maxclass" : "outlet",
													"numinlets" : 1,
													"numoutlets" : 0,
													"patching_rect" : [ 50.0, 217.0, 30.0, 30.0 ],
													"presentation_rect" : [ 50.0, 217.0, 30.0, 30.0 ],
													"style" : ""
												}

											}
 ],
										"lines" : [ 											{
												"patchline" : 												{
													"destination" : [ "obj-68", 0 ],
													"source" : [ "obj-51", 0 ]
												}

											}
, 											{
												"patchline" : 												{
													"destination" : [ "obj-51", 0 ],
													"source" : [ "obj-52", 0 ]
												}

											}
, 											{
												"patchline" : 												{
													"destination" : [ "obj-52", 0 ],
													"source" : [ "obj-67", 0 ]
												}

											}
 ]
									}
,
									"patching_rect" : [ 127.0, 171.0, 43.0, 22.0 ],
									"presentation_rect" : [ 127.0, 171.0, 43.0, 22.0 ],
									"saved_object_attributes" : 									{
										"description" : "",
										"digest" : "",
										"globalpatchername" : "",
										"style" : "",
										"tags" : ""
									}
,
									"style" : "",
									"text" : "p sine"
								}

							}
, 							{
								"box" : 								{
									"id" : "obj-64",
									"maxclass" : "newobj",
									"numinlets" : 3,
									"numoutlets" : 1,
									"outlettype" : [ "" ],
									"patcher" : 									{
										"fileversion" : 1,
										"appversion" : 										{
											"major" : 7,
											"minor" : 3,
											"revision" : 5,
											"architecture" : "x64",
											"modernui" : 1
										}
,
										"rect" : [ 92.0, 135.0, 640.0, 480.0 ],
										"bglocked" : 0,
										"openinpresentation" : 0,
										"default_fontsize" : 12.0,
										"default_fontface" : 0,
										"default_fontname" : "Arial",
										"gridonopen" : 1,
										"gridsize" : [ 15.0, 15.0 ],
										"gridsnaponopen" : 1,
										"objectsnaponopen" : 1,
										"statusbarvisible" : 2,
										"toolbarvisible" : 1,
										"lefttoolbarpinned" : 0,
										"toptoolbarpinned" : 0,
										"righttoolbarpinned" : 0,
										"bottomtoolbarpinned" : 0,
										"toolbars_unpinned_last_save" : 0,
										"tallnewobj" : 0,
										"boxanimatetime" : 200,
										"enablehscroll" : 1,
										"enablevscroll" : 1,
										"devicewidth" : 0.0,
										"description" : "",
										"digest" : "",
										"tags" : "",
										"style" : "",
										"subpatcher_template" : "",
										"boxes" : [ 											{
												"box" : 												{
													"id" : "obj-8",
													"maxclass" : "newobj",
													"numinlets" : 3,
													"numoutlets" : 1,
													"outlettype" : [ "" ],
													"patching_rect" : [ 50.0, 186.0, 59.0, 22.0 ],
													"presentation_rect" : [ 50.0, 186.0, 59.0, 22.0 ],
													"style" : "",
													"text" : "clip -1. 1."
												}

											}
, 											{
												"box" : 												{
													"id" : "obj-60",
													"maxclass" : "newobj",
													"numinlets" : 2,
													"numoutlets" : 1,
													"outlettype" : [ "float" ],
													"patching_rect" : [ 50.0, 153.0, 31.0, 22.0 ],
													"presentation_rect" : [ 50.0, 153.0, 31.0, 22.0 ],
													"style" : "",
													"text" : "+ 0."
												}

											}
, 											{
												"box" : 												{
													"id" : "obj-65",
													"maxclass" : "newobj",
													"numinlets" : 2,
													"numoutlets" : 1,
													"outlettype" : [ "float" ],
													"patching_rect" : [ 50.0, 100.0, 29.5, 22.0 ],
													"presentation_rect" : [ 50.0, 100.0, 29.5, 22.0 ],
													"style" : "",
													"text" : "* 1."
												}

											}
, 											{
												"box" : 												{
													"comment" : "",
													"id" : "obj-59",
													"index" : 1,
													"maxclass" : "inlet",
													"numinlets" : 0,
													"numoutlets" : 1,
													"outlettype" : [ "float" ],
													"patching_rect" : [ 50.0, 40.0, 30.0, 30.0 ],
													"presentation_rect" : [ 50.0, 40.0, 30.0, 30.0 ],
													"style" : ""
												}

											}
, 											{
												"box" : 												{
													"comment" : "",
													"id" : "obj-61",
													"index" : 2,
													"maxclass" : "inlet",
													"numinlets" : 0,
													"numoutlets" : 1,
													"outlettype" : [ "float" ],
													"patching_rect" : [ 85.0, 40.0, 30.0, 30.0 ],
													"presentation_rect" : [ 85.0, 40.0, 30.0, 30.0 ],
													"style" : ""
												}

											}
, 											{
												"box" : 												{
													"comment" : "",
													"id" : "obj-62",
													"index" : 3,
													"maxclass" : "inlet",
													"numinlets" : 0,
													"numoutlets" : 1,
													"outlettype" : [ "float" ],
													"patching_rect" : [ 120.0, 40.0, 30.0, 30.0 ],
													"presentation_rect" : [ 120.0, 40.0, 30.0, 30.0 ],
													"style" : ""
												}

											}
, 											{
												"box" : 												{
													"comment" : "",
													"id" : "obj-63",
													"index" : 1,
													"maxclass" : "outlet",
													"numinlets" : 1,
													"numoutlets" : 0,
													"patching_rect" : [ 50.0, 268.0, 30.0, 30.0 ],
													"presentation_rect" : [ 50.0, 268.0, 30.0, 30.0 ],
													"style" : ""
												}

											}
 ],
										"lines" : [ 											{
												"patchline" : 												{
													"destination" : [ "obj-65", 0 ],
													"source" : [ "obj-59", 0 ]
												}

											}
, 											{
												"patchline" : 												{
													"destination" : [ "obj-8", 0 ],
													"source" : [ "obj-60", 0 ]
												}

											}
, 											{
												"patchline" : 												{
													"destination" : [ "obj-65", 1 ],
													"source" : [ "obj-61", 0 ]
												}

											}
, 											{
												"patchline" : 												{
													"destination" : [ "obj-60", 1 ],
													"source" : [ "obj-62", 0 ]
												}

											}
, 											{
												"patchline" : 												{
													"destination" : [ "obj-60", 0 ],
													"source" : [ "obj-65", 0 ]
												}

											}
, 											{
												"patchline" : 												{
													"destination" : [ "obj-63", 0 ],
													"source" : [ "obj-8", 0 ]
												}

											}
 ]
									}
,
									"patching_rect" : [ 127.0, 333.0, 428.0, 22.0 ],
									"presentation_rect" : [ 127.0, 333.0, 428.0, 22.0 ],
									"saved_object_attributes" : 									{
										"description" : "",
										"digest" : "",
										"globalpatchername" : "",
										"style" : "",
										"tags" : ""
									}
,
									"style" : "",
									"text" : "p depth offset"
								}

							}
, 							{
								"box" : 								{
									"fontname" : "Arial",
									"fontsize" : 12.0,
									"id" : "obj-53",
									"maxclass" : "newobj",
									"numinlets" : 2,
									"numoutlets" : 2,
									"outlettype" : [ "", "" ],
									"patching_rect" : [ 50.0, 386.5, 53.0, 22.0 ],
									"presentation_rect" : [ 50.0, 386.5, 53.0, 22.0 ],
									"style" : "",
									"text" : "zl.group"
								}

							}
, 							{
								"box" : 								{
									"id" : "obj-44",
									"maxclass" : "newobj",
									"numinlets" : 2,
									"numoutlets" : 4,
									"outlettype" : [ "", "", "", "" ],
									"patching_rect" : [ 127.0, 100.0, 227.5, 22.0 ],
									"presentation_rect" : [ 127.0, 100.0, 227.5, 22.0 ],
									"style" : "",
									"text" : "gate 4"
								}

							}
, 							{
								"box" : 								{
									"comment" : "",
									"id" : "obj-148",
									"index" : 1,
									"maxclass" : "inlet",
									"numinlets" : 0,
									"numoutlets" : 1,
									"outlettype" : [ "bang" ],
									"patching_rect" : [ 50.0, 40.0, 30.0, 30.0 ],
									"presentation_rect" : [ 50.0, 40.0, 30.0, 30.0 ],
									"style" : ""
								}

							}
, 							{
								"box" : 								{
									"comment" : "",
									"id" : "obj-149",
									"index" : 3,
									"maxclass" : "inlet",
									"numinlets" : 0,
									"numoutlets" : 1,
									"outlettype" : [ "int" ],
									"patching_rect" : [ 127.0, 40.0, 30.0, 30.0 ],
									"presentation_rect" : [ 127.0, 40.0, 30.0, 30.0 ],
									"style" : ""
								}

							}
, 							{
								"box" : 								{
									"comment" : "",
									"id" : "obj-150",
									"index" : 4,
									"maxclass" : "inlet",
									"numinlets" : 0,
									"numoutlets" : 1,
									"outlettype" : [ "float" ],
									"patching_rect" : [ 441.0, 54.0, 30.0, 30.0 ],
									"presentation_rect" : [ 441.0, 54.0, 30.0, 30.0 ],
									"style" : ""
								}

							}
, 							{
								"box" : 								{
									"comment" : "",
									"id" : "obj-151",
									"index" : 5,
									"maxclass" : "inlet",
									"numinlets" : 0,
									"numoutlets" : 1,
									"outlettype" : [ "float" ],
									"patching_rect" : [ 488.5, 54.0, 30.0, 30.0 ],
									"presentation_rect" : [ 488.5, 54.0, 30.0, 30.0 ],
									"style" : ""
								}

							}
, 							{
								"box" : 								{
									"comment" : "",
									"id" : "obj-152",
									"index" : 2,
									"maxclass" : "inlet",
									"numinlets" : 0,
									"numoutlets" : 1,
									"outlettype" : [ "int" ],
									"patching_rect" : [ 89.0, 40.0, 30.0, 30.0 ],
									"presentation_rect" : [ 89.0, 40.0, 30.0, 30.0 ],
									"style" : ""
								}

							}
, 							{
								"box" : 								{
									"comment" : "",
									"id" : "obj-153",
									"index" : 6,
									"maxclass" : "inlet",
									"numinlets" : 0,
									"numoutlets" : 1,
									"outlettype" : [ "float" ],
									"patching_rect" : [ 532.5, 54.0, 30.0, 30.0 ],
									"presentation_rect" : [ 532.5, 54.0, 30.0, 30.0 ],
									"style" : ""
								}

							}
, 							{
								"box" : 								{
									"comment" : "",
									"id" : "obj-154",
									"index" : 1,
									"maxclass" : "outlet",
									"numinlets" : 1,
									"numoutlets" : 0,
									"patching_rect" : [ 50.0, 468.5, 30.0, 30.0 ],
									"presentation_rect" : [ 50.0, 468.5, 30.0, 30.0 ],
									"style" : ""
								}

							}
 ],
						"lines" : [ 							{
								"patchline" : 								{
									"destination" : [ "obj-64", 0 ],
									"source" : [ "obj-133", 0 ]
								}

							}
, 							{
								"patchline" : 								{
									"destination" : [ "obj-53", 0 ],
									"source" : [ "obj-148", 0 ]
								}

							}
, 							{
								"patchline" : 								{
									"destination" : [ "obj-44", 0 ],
									"source" : [ "obj-149", 0 ]
								}

							}
, 							{
								"patchline" : 								{
									"destination" : [ "obj-83", 1 ],
									"source" : [ "obj-150", 0 ]
								}

							}
, 							{
								"patchline" : 								{
									"destination" : [ "obj-64", 1 ],
									"source" : [ "obj-151", 0 ]
								}

							}
, 							{
								"patchline" : 								{
									"destination" : [ "obj-44", 1 ],
									"source" : [ "obj-152", 0 ]
								}

							}
, 							{
								"patchline" : 								{
									"destination" : [ "obj-64", 2 ],
									"source" : [ "obj-153", 0 ]
								}

							}
, 							{
								"patchline" : 								{
									"destination" : [ "obj-133", 0 ],
									"source" : [ "obj-44", 3 ]
								}

							}
, 							{
								"patchline" : 								{
									"destination" : [ "obj-69", 0 ],
									"source" : [ "obj-44", 0 ]
								}

							}
, 							{
								"patchline" : 								{
									"destination" : [ "obj-73", 0 ],
									"source" : [ "obj-44", 1 ]
								}

							}
, 							{
								"patchline" : 								{
									"destination" : [ "obj-83", 0 ],
									"source" : [ "obj-44", 2 ]
								}

							}
, 							{
								"patchline" : 								{
									"destination" : [ "obj-154", 0 ],
									"source" : [ "obj-53", 0 ]
								}

							}
, 							{
								"patchline" : 								{
									"destination" : [ "obj-53", 0 ],
									"source" : [ "obj-64", 0 ]
								}

							}
, 							{
								"patchline" : 								{
									"destination" : [ "obj-64", 0 ],
									"source" : [ "obj-69", 0 ]
								}

							}
, 							{
								"patchline" : 								{
									"destination" : [ "obj-64", 0 ],
									"source" : [ "obj-73", 0 ]
								}

							}
, 							{
								"patchline" : 								{
									"destination" : [ "obj-64", 0 ],
									"source" : [ "obj-83", 0 ]
								}

							}
 ]
					}
,
					"patching_rect" : [ 261.5, 593.5, 505.0, 22.0 ],
					"presentation_rect" : [ 261.5, 593.5, 505.0, 22.0 ],
					"saved_object_attributes" : 					{
						"description" : "",
						"digest" : "",
						"globalpatchername" : "",
						"style" : "",
						"tags" : ""
					}
,
					"style" : "",
					"text" : "p"
				}

			}
, 			{
				"box" : 				{
					"id" : "obj-155",
					"maxclass" : "newobj",
					"numinlets" : 6,
					"numoutlets" : 1,
					"outlettype" : [ "" ],
					"patcher" : 					{
						"fileversion" : 1,
						"appversion" : 						{
							"major" : 7,
							"minor" : 3,
							"revision" : 5,
							"architecture" : "x64",
							"modernui" : 1
						}
,
						"rect" : [ 34.0, 77.0, 1298.0, 617.0 ],
						"bglocked" : 0,
						"openinpresentation" : 0,
						"default_fontsize" : 12.0,
						"default_fontface" : 0,
						"default_fontname" : "Arial",
						"gridonopen" : 1,
						"gridsize" : [ 15.0, 15.0 ],
						"gridsnaponopen" : 1,
						"objectsnaponopen" : 1,
						"statusbarvisible" : 2,
						"toolbarvisible" : 1,
						"lefttoolbarpinned" : 0,
						"toptoolbarpinned" : 0,
						"righttoolbarpinned" : 0,
						"bottomtoolbarpinned" : 0,
						"toolbars_unpinned_last_save" : 0,
						"tallnewobj" : 0,
						"boxanimatetime" : 200,
						"enablehscroll" : 1,
						"enablevscroll" : 1,
						"devicewidth" : 0.0,
						"description" : "",
						"digest" : "",
						"tags" : "",
						"style" : "",
						"subpatcher_template" : "",
						"boxes" : [ 							{
								"box" : 								{
									"id" : "obj-133",
									"maxclass" : "newobj",
									"numinlets" : 1,
									"numoutlets" : 1,
									"outlettype" : [ "float" ],
									"patcher" : 									{
										"fileversion" : 1,
										"appversion" : 										{
											"major" : 7,
											"minor" : 3,
											"revision" : 5,
											"architecture" : "x64",
											"modernui" : 1
										}
,
										"rect" : [ -31958.0, -31915.0, 640.0, 480.0 ],
										"bglocked" : 0,
										"openinpresentation" : 0,
										"default_fontsize" : 12.0,
										"default_fontface" : 0,
										"default_fontname" : "Arial",
										"gridonopen" : 1,
										"gridsize" : [ 15.0, 15.0 ],
										"gridsnaponopen" : 1,
										"objectsnaponopen" : 1,
										"statusbarvisible" : 2,
										"toolbarvisible" : 1,
										"lefttoolbarpinned" : 0,
										"toptoolbarpinned" : 0,
										"righttoolbarpinned" : 0,
										"bottomtoolbarpinned" : 0,
										"toolbars_unpinned_last_save" : 0,
										"tallnewobj" : 0,
										"boxanimatetime" : 200,
										"enablehscroll" : 1,
										"enablevscroll" : 1,
										"devicewidth" : 0.0,
										"description" : "",
										"digest" : "",
										"tags" : "",
										"style" : "",
										"subpatcher_template" : "",
										"boxes" : [ 											{
												"box" : 												{
													"id" : "obj-116",
													"maxclass" : "newobj",
													"numinlets" : 2,
													"numoutlets" : 2,
													"outlettype" : [ "bang", "" ],
													"patching_rect" : [ 88.666687, 194.0, 36.0, 22.0 ],
													"presentation_rect" : [ 88.666687, 194.0, 36.0, 22.0 ],
													"style" : "",
													"text" : "sel 1"
												}

											}
, 											{
												"box" : 												{
													"id" : "obj-97",
													"maxclass" : "newobj",
													"numinlets" : 6,
													"numoutlets" : 1,
													"outlettype" : [ "" ],
													"patching_rect" : [ 88.666687, 354.0, 103.0, 22.0 ],
													"presentation_rect" : [ 88.666687, 354.0, 103.0, 22.0 ],
													"style" : "",
													"text" : "scale 0 200 1. -1."
												}

											}
, 											{
												"box" : 												{
													"id" : "obj-96",
													"maxclass" : "newobj",
													"numinlets" : 1,
													"numoutlets" : 2,
													"outlettype" : [ "int", "bang" ],
													"patching_rect" : [ 50.0, 100.0, 190.0, 22.0 ],
													"presentation_rect" : [ 50.0, 100.0, 190.0, 22.0 ],
													"style" : "",
													"text" : "t i b"
												}

											}
, 											{
												"box" : 												{
													"id" : "obj-94",
													"maxclass" : "newobj",
													"numinlets" : 2,
													"numoutlets" : 1,
													"outlettype" : [ "float" ],
													"patching_rect" : [ 88.666687, 398.0, 42.0, 22.0 ],
													"presentation_rect" : [ 88.666687, 398.0, 42.0, 22.0 ],
													"style" : "",
													"text" : "* 0.05"
												}

											}
, 											{
												"box" : 												{
													"id" : "obj-93",
													"maxclass" : "newobj",
													"numinlets" : 2,
													"numoutlets" : 1,
													"outlettype" : [ "float" ],
													"patching_rect" : [ 139.666687, 399.0, 42.0, 22.0 ],
													"presentation_rect" : [ 139.666687, 399.0, 42.0, 22.0 ],
													"style" : "",
													"text" : "* 0.95"
												}

											}
, 											{
												"box" : 												{
													"id" : "obj-92",
													"maxclass" : "newobj",
													"numinlets" : 2,
													"numoutlets" : 1,
													"outlettype" : [ "float" ],
													"patching_rect" : [ 88.666687, 445.0, 70.0, 22.0 ],
													"presentation_rect" : [ 88.666687, 445.0, 70.0, 22.0 ],
													"style" : "",
													"text" : "+ 0."
												}

											}
, 											{
												"box" : 												{
													"id" : "obj-85",
													"maxclass" : "number",
													"numinlets" : 1,
													"numoutlets" : 2,
													"outlettype" : [ "", "bang" ],
													"parameter_enable" : 0,
													"patching_rect" : [ 88.666687, 308.0, 50.0, 22.0 ],
													"presentation_rect" : [ 88.666687, 308.0, 50.0, 22.0 ],
													"style" : ""
												}

											}
, 											{
												"box" : 												{
													"id" : "obj-86",
													"maxclass" : "newobj",
													"numinlets" : 2,
													"numoutlets" : 1,
													"outlettype" : [ "int" ],
													"patching_rect" : [ 88.666687, 230.5, 75.0, 22.0 ],
													"presentation_rect" : [ 88.666687, 230.5, 75.0, 22.0 ],
													"style" : "",
													"text" : "random 200"
												}

											}
, 											{
												"box" : 												{
													"id" : "obj-55",
													"maxclass" : "newobj",
													"numinlets" : 5,
													"numoutlets" : 4,
													"outlettype" : [ "int", "", "", "int" ],
													"patching_rect" : [ 50.0, 156.0, 77.0, 22.0 ],
													"presentation_rect" : [ 50.0, 156.0, 77.0, 22.0 ],
													"style" : "",
													"text" : "counter 1 50"
												}

											}
, 											{
												"box" : 												{
													"comment" : "",
													"id" : "obj-131",
													"index" : 1,
													"maxclass" : "inlet",
													"numinlets" : 0,
													"numoutlets" : 1,
													"outlettype" : [ "" ],
													"patching_rect" : [ 50.0, 40.0, 30.0, 30.0 ],
													"presentation_rect" : [ 50.0, 40.0, 30.0, 30.0 ],
													"style" : ""
												}

											}
, 											{
												"box" : 												{
													"comment" : "",
													"id" : "obj-132",
													"index" : 1,
													"maxclass" : "outlet",
													"numinlets" : 1,
													"numoutlets" : 0,
													"patching_rect" : [ 88.666687, 540.5, 30.0, 30.0 ],
													"presentation_rect" : [ 88.666687, 540.5, 30.0, 30.0 ],
													"style" : ""
												}

											}
 ],
										"lines" : [ 											{
												"patchline" : 												{
													"destination" : [ "obj-86", 0 ],
													"source" : [ "obj-116", 0 ]
												}

											}
, 											{
												"patchline" : 												{
													"destination" : [ "obj-96", 0 ],
													"source" : [ "obj-131", 0 ]
												}

											}
, 											{
												"patchline" : 												{
													"destination" : [ "obj-116", 0 ],
													"source" : [ "obj-55", 2 ]
												}

											}
, 											{
												"patchline" : 												{
													"destination" : [ "obj-97", 0 ],
													"source" : [ "obj-85", 0 ]
												}

											}
, 											{
												"patchline" : 												{
													"destination" : [ "obj-85", 0 ],
													"source" : [ "obj-86", 0 ]
												}

											}
, 											{
												"patchline" : 												{
													"destination" : [ "obj-132", 0 ],
													"order" : 1,
													"source" : [ "obj-92", 0 ]
												}

											}
, 											{
												"patchline" : 												{
													"destination" : [ "obj-93", 0 ],
													"midpoints" : [ 98.166687, 478.0, 197.666687, 478.0, 197.666687, 389.0, 149.166687, 389.0 ],
													"order" : 0,
													"source" : [ "obj-92", 0 ]
												}

											}
, 											{
												"patchline" : 												{
													"destination" : [ "obj-92", 1 ],
													"source" : [ "obj-93", 0 ]
												}

											}
, 											{
												"patchline" : 												{
													"destination" : [ "obj-92", 0 ],
													"source" : [ "obj-94", 0 ]
												}

											}
, 											{
												"patchline" : 												{
													"destination" : [ "obj-55", 0 ],
													"source" : [ "obj-96", 0 ]
												}

											}
, 											{
												"patchline" : 												{
													"destination" : [ "obj-85", 0 ],
													"midpoints" : [ 230.5, 295.0, 98.166687, 295.0 ],
													"source" : [ "obj-96", 1 ]
												}

											}
, 											{
												"patchline" : 												{
													"destination" : [ "obj-94", 0 ],
													"source" : [ "obj-97", 0 ]
												}

											}
 ]
									}
,
									"patching_rect" : [ 335.5, 171.0, 45.0, 22.0 ],
									"presentation_rect" : [ 335.5, 171.0, 45.0, 22.0 ],
									"saved_object_attributes" : 									{
										"description" : "",
										"digest" : "",
										"globalpatchername" : "",
										"style" : "",
										"tags" : ""
									}
,
									"style" : "",
									"text" : "p rand"
								}

							}
, 							{
								"box" : 								{
									"id" : "obj-83",
									"maxclass" : "newobj",
									"numinlets" : 2,
									"numoutlets" : 1,
									"outlettype" : [ "float" ],
									"patcher" : 									{
										"fileversion" : 1,
										"appversion" : 										{
											"major" : 7,
											"minor" : 3,
											"revision" : 5,
											"architecture" : "x64",
											"modernui" : 1
										}
,
										"rect" : [ 92.0, 135.0, 640.0, 480.0 ],
										"bglocked" : 0,
										"openinpresentation" : 0,
										"default_fontsize" : 12.0,
										"default_fontface" : 0,
										"default_fontname" : "Arial",
										"gridonopen" : 1,
										"gridsize" : [ 15.0, 15.0 ],
										"gridsnaponopen" : 1,
										"objectsnaponopen" : 1,
										"statusbarvisible" : 2,
										"toolbarvisible" : 1,
										"lefttoolbarpinned" : 0,
										"toptoolbarpinned" : 0,
										"righttoolbarpinned" : 0,
										"bottomtoolbarpinned" : 0,
										"toolbars_unpinned_last_save" : 0,
										"tallnewobj" : 0,
										"boxanimatetime" : 200,
										"enablehscroll" : 1,
										"enablevscroll" : 1,
										"devicewidth" : 0.0,
										"description" : "",
										"digest" : "",
										"tags" : "",
										"style" : "",
										"subpatcher_template" : "",
										"boxes" : [ 											{
												"box" : 												{
													"fontname" : "Arial",
													"fontsize" : 11.595187,
													"id" : "obj-29",
													"maxclass" : "newobj",
													"numinlets" : 2,
													"numoutlets" : 1,
													"outlettype" : [ "float" ],
													"patching_rect" : [ 50.0, 247.5, 29.5, 22.0 ],
													"presentation_rect" : [ 50.0, 247.5, 29.5, 22.0 ],
													"style" : "",
													"text" : "- 1."
												}

											}
, 											{
												"box" : 												{
													"fontname" : "Arial",
													"fontsize" : 11.595187,
													"id" : "obj-32",
													"maxclass" : "newobj",
													"numinlets" : 2,
													"numoutlets" : 1,
													"outlettype" : [ "float" ],
													"patching_rect" : [ 50.0, 219.5, 34.0, 22.0 ],
													"presentation_rect" : [ 50.0, 219.5, 34.0, 22.0 ],
													"style" : "",
													"text" : "* 2.1"
												}

											}
, 											{
												"box" : 												{
													"fontname" : "Arial",
													"fontsize" : 11.595187,
													"id" : "obj-18",
													"maxclass" : "newobj",
													"numinlets" : 2,
													"numoutlets" : 1,
													"outlettype" : [ "int" ],
													"patching_rect" : [ 50.0, 173.5, 174.0, 22.0 ],
													"presentation_rect" : [ 50.0, 173.5, 174.0, 22.0 ],
													"style" : "",
													"text" : "> 0.5"
												}

											}
, 											{
												"box" : 												{
													"id" : "obj-20",
													"maxclass" : "newobj",
													"numinlets" : 6,
													"numoutlets" : 1,
													"outlettype" : [ "" ],
													"patching_rect" : [ 50.0, 100.0, 112.0, 22.0 ],
													"presentation_rect" : [ 50.0, 100.0, 112.0, 22.0 ],
													"style" : "",
													"text" : "scale 0 200 0.1 0.9"
												}

											}
, 											{
												"box" : 												{
													"comment" : "",
													"id" : "obj-80",
													"index" : 1,
													"maxclass" : "inlet",
													"numinlets" : 0,
													"numoutlets" : 1,
													"outlettype" : [ "" ],
													"patching_rect" : [ 50.0, 40.0, 30.0, 30.0 ],
													"presentation_rect" : [ 50.0, 40.0, 30.0, 30.0 ],
													"style" : ""
												}

											}
, 											{
												"box" : 												{
													"comment" : "",
													"id" : "obj-81",
													"index" : 2,
													"maxclass" : "inlet",
													"numinlets" : 0,
													"numoutlets" : 1,
													"outlettype" : [ "float" ],
													"patching_rect" : [ 205.0, 40.0, 30.0, 30.0 ],
													"presentation_rect" : [ 205.0, 40.0, 30.0, 30.0 ],
													"style" : ""
												}

											}
, 											{
												"box" : 												{
													"comment" : "",
													"id" : "obj-82",
													"index" : 1,
													"maxclass" : "outlet",
													"numinlets" : 1,
													"numoutlets" : 0,
													"patching_rect" : [ 50.0, 384.5, 30.0, 30.0 ],
													"presentation_rect" : [ 50.0, 384.5, 30.0, 30.0 ],
													"style" : ""
												}

											}
 ],
										"lines" : [ 											{
												"patchline" : 												{
													"destination" : [ "obj-32", 0 ],
													"source" : [ "obj-18", 0 ]
												}

											}
, 											{
												"patchline" : 												{
													"destination" : [ "obj-18", 0 ],
													"source" : [ "obj-20", 0 ]
												}

											}
, 											{
												"patchline" : 												{
													"destination" : [ "obj-82", 0 ],
													"source" : [ "obj-29", 0 ]
												}

											}
, 											{
												"patchline" : 												{
													"destination" : [ "obj-29", 0 ],
													"source" : [ "obj-32", 0 ]
												}

											}
, 											{
												"patchline" : 												{
													"destination" : [ "obj-20", 0 ],
													"source" : [ "obj-80", 0 ]
												}

											}
, 											{
												"patchline" : 												{
													"destination" : [ "obj-18", 1 ],
													"source" : [ "obj-81", 0 ]
												}

											}
 ]
									}
,
									"patching_rect" : [ 263.0, 171.0, 57.0, 22.0 ],
									"presentation_rect" : [ 263.0, 171.0, 57.0, 22.0 ],
									"saved_object_attributes" : 									{
										"description" : "",
										"digest" : "",
										"globalpatchername" : "",
										"style" : "",
										"tags" : ""
									}
,
									"style" : "",
									"text" : "p square"
								}

							}
, 							{
								"box" : 								{
									"id" : "obj-73",
									"maxclass" : "newobj",
									"numinlets" : 1,
									"numoutlets" : 1,
									"outlettype" : [ "" ],
									"patcher" : 									{
										"fileversion" : 1,
										"appversion" : 										{
											"major" : 7,
											"minor" : 3,
											"revision" : 5,
											"architecture" : "x64",
											"modernui" : 1
										}
,
										"rect" : [ 0.0, 0.0, 640.0, 480.0 ],
										"bglocked" : 0,
										"openinpresentation" : 0,
										"default_fontsize" : 12.0,
										"default_fontface" : 0,
										"default_fontname" : "Arial",
										"gridonopen" : 1,
										"gridsize" : [ 15.0, 15.0 ],
										"gridsnaponopen" : 1,
										"objectsnaponopen" : 1,
										"statusbarvisible" : 2,
										"toolbarvisible" : 1,
										"lefttoolbarpinned" : 0,
										"toptoolbarpinned" : 0,
										"righttoolbarpinned" : 0,
										"bottomtoolbarpinned" : 0,
										"toolbars_unpinned_last_save" : 0,
										"tallnewobj" : 0,
										"boxanimatetime" : 200,
										"enablehscroll" : 1,
										"enablevscroll" : 1,
										"devicewidth" : 0.0,
										"description" : "",
										"digest" : "",
										"tags" : "",
										"style" : "",
										"subpatcher_template" : "",
										"boxes" : [ 											{
												"box" : 												{
													"id" : "obj-40",
													"maxclass" : "newobj",
													"numinlets" : 3,
													"numoutlets" : 1,
													"outlettype" : [ "" ],
													"patching_rect" : [ 50.0, 138.0, 136.0, 22.0 ],
													"presentation_rect" : [ 50.0, 138.0, 136.0, 22.0 ],
													"style" : "",
													"text" : "pong -1. 1. @mode fold"
												}

											}
, 											{
												"box" : 												{
													"id" : "obj-41",
													"maxclass" : "newobj",
													"numinlets" : 6,
													"numoutlets" : 1,
													"outlettype" : [ "" ],
													"patching_rect" : [ 50.0, 100.0, 103.0, 22.0 ],
													"presentation_rect" : [ 50.0, 100.0, 103.0, 22.0 ],
													"style" : "",
													"text" : "scale 0 200 -2. 2."
												}

											}
, 											{
												"box" : 												{
													"comment" : "",
													"id" : "obj-70",
													"index" : 1,
													"maxclass" : "inlet",
													"numinlets" : 0,
													"numoutlets" : 1,
													"outlettype" : [ "" ],
													"patching_rect" : [ 50.0, 40.0, 30.0, 30.0 ],
													"presentation_rect" : [ 50.0, 40.0, 30.0, 30.0 ],
													"style" : ""
												}

											}
, 											{
												"box" : 												{
													"comment" : "",
													"id" : "obj-71",
													"index" : 1,
													"maxclass" : "outlet",
													"numinlets" : 1,
													"numoutlets" : 0,
													"patching_rect" : [ 50.0, 220.0, 30.0, 30.0 ],
													"presentation_rect" : [ 50.0, 220.0, 30.0, 30.0 ],
													"style" : ""
												}

											}
 ],
										"lines" : [ 											{
												"patchline" : 												{
													"destination" : [ "obj-71", 0 ],
													"source" : [ "obj-40", 0 ]
												}

											}
, 											{
												"patchline" : 												{
													"destination" : [ "obj-40", 0 ],
													"source" : [ "obj-41", 0 ]
												}

											}
, 											{
												"patchline" : 												{
													"destination" : [ "obj-41", 0 ],
													"source" : [ "obj-70", 0 ]
												}

											}
 ]
									}
,
									"patching_rect" : [ 196.5, 171.0, 31.0, 22.0 ],
									"presentation_rect" : [ 196.5, 171.0, 31.0, 22.0 ],
									"saved_object_attributes" : 									{
										"description" : "",
										"digest" : "",
										"globalpatchername" : "",
										"style" : "",
										"tags" : ""
									}
,
									"style" : "",
									"text" : "p tri"
								}

							}
, 							{
								"box" : 								{
									"id" : "obj-69",
									"maxclass" : "newobj",
									"numinlets" : 1,
									"numoutlets" : 1,
									"outlettype" : [ "float" ],
									"patcher" : 									{
										"fileversion" : 1,
										"appversion" : 										{
											"major" : 7,
											"minor" : 3,
											"revision" : 5,
											"architecture" : "x64",
											"modernui" : 1
										}
,
										"rect" : [ 0.0, 0.0, 640.0, 480.0 ],
										"bglocked" : 0,
										"openinpresentation" : 0,
										"default_fontsize" : 12.0,
										"default_fontface" : 0,
										"default_fontname" : "Arial",
										"gridonopen" : 1,
										"gridsize" : [ 15.0, 15.0 ],
										"gridsnaponopen" : 1,
										"objectsnaponopen" : 1,
										"statusbarvisible" : 2,
										"toolbarvisible" : 1,
										"lefttoolbarpinned" : 0,
										"toptoolbarpinned" : 0,
										"righttoolbarpinned" : 0,
										"bottomtoolbarpinned" : 0,
										"toolbars_unpinned_last_save" : 0,
										"tallnewobj" : 0,
										"boxanimatetime" : 200,
										"enablehscroll" : 1,
										"enablevscroll" : 1,
										"devicewidth" : 0.0,
										"description" : "",
										"digest" : "",
										"tags" : "",
										"style" : "",
										"subpatcher_template" : "",
										"boxes" : [ 											{
												"box" : 												{
													"id" : "obj-51",
													"maxclass" : "newobj",
													"numinlets" : 1,
													"numoutlets" : 1,
													"outlettype" : [ "float" ],
													"patching_rect" : [ 50.0, 135.0, 26.0, 22.0 ],
													"presentation_rect" : [ 50.0, 135.0, 26.0, 22.0 ],
													"style" : "",
													"text" : "sin"
												}

											}
, 											{
												"box" : 												{
													"id" : "obj-52",
													"maxclass" : "newobj",
													"numinlets" : 6,
													"numoutlets" : 1,
													"outlettype" : [ "" ],
													"patching_rect" : [ 50.0, 100.0, 129.0, 22.0 ],
													"presentation_rect" : [ 50.0, 100.0, 129.0, 22.0 ],
													"style" : "",
													"text" : "scale 0 200 3.14 -3.14"
												}

											}
, 											{
												"box" : 												{
													"comment" : "",
													"id" : "obj-67",
													"index" : 1,
													"maxclass" : "inlet",
													"numinlets" : 0,
													"numoutlets" : 1,
													"outlettype" : [ "" ],
													"patching_rect" : [ 50.0, 40.0, 30.0, 30.0 ],
													"presentation_rect" : [ 50.0, 40.0, 30.0, 30.0 ],
													"style" : ""
												}

											}
, 											{
												"box" : 												{
													"comment" : "",
													"id" : "obj-68",
													"index" : 1,
													"maxclass" : "outlet",
													"numinlets" : 1,
													"numoutlets" : 0,
													"patching_rect" : [ 50.0, 217.0, 30.0, 30.0 ],
													"presentation_rect" : [ 50.0, 217.0, 30.0, 30.0 ],
													"style" : ""
												}

											}
 ],
										"lines" : [ 											{
												"patchline" : 												{
													"destination" : [ "obj-68", 0 ],
													"source" : [ "obj-51", 0 ]
												}

											}
, 											{
												"patchline" : 												{
													"destination" : [ "obj-51", 0 ],
													"source" : [ "obj-52", 0 ]
												}

											}
, 											{
												"patchline" : 												{
													"destination" : [ "obj-52", 0 ],
													"source" : [ "obj-67", 0 ]
												}

											}
 ]
									}
,
									"patching_rect" : [ 127.0, 171.0, 43.0, 22.0 ],
									"presentation_rect" : [ 127.0, 171.0, 43.0, 22.0 ],
									"saved_object_attributes" : 									{
										"description" : "",
										"digest" : "",
										"globalpatchername" : "",
										"style" : "",
										"tags" : ""
									}
,
									"style" : "",
									"text" : "p sine"
								}

							}
, 							{
								"box" : 								{
									"id" : "obj-64",
									"maxclass" : "newobj",
									"numinlets" : 3,
									"numoutlets" : 1,
									"outlettype" : [ "" ],
									"patcher" : 									{
										"fileversion" : 1,
										"appversion" : 										{
											"major" : 7,
											"minor" : 3,
											"revision" : 5,
											"architecture" : "x64",
											"modernui" : 1
										}
,
										"rect" : [ 92.0, 135.0, 640.0, 480.0 ],
										"bglocked" : 0,
										"openinpresentation" : 0,
										"default_fontsize" : 12.0,
										"default_fontface" : 0,
										"default_fontname" : "Arial",
										"gridonopen" : 1,
										"gridsize" : [ 15.0, 15.0 ],
										"gridsnaponopen" : 1,
										"objectsnaponopen" : 1,
										"statusbarvisible" : 2,
										"toolbarvisible" : 1,
										"lefttoolbarpinned" : 0,
										"toptoolbarpinned" : 0,
										"righttoolbarpinned" : 0,
										"bottomtoolbarpinned" : 0,
										"toolbars_unpinned_last_save" : 0,
										"tallnewobj" : 0,
										"boxanimatetime" : 200,
										"enablehscroll" : 1,
										"enablevscroll" : 1,
										"devicewidth" : 0.0,
										"description" : "",
										"digest" : "",
										"tags" : "",
										"style" : "",
										"subpatcher_template" : "",
										"boxes" : [ 											{
												"box" : 												{
													"id" : "obj-8",
													"maxclass" : "newobj",
													"numinlets" : 3,
													"numoutlets" : 1,
													"outlettype" : [ "" ],
													"patching_rect" : [ 50.0, 186.0, 59.0, 22.0 ],
													"presentation_rect" : [ 50.0, 186.0, 59.0, 22.0 ],
													"style" : "",
													"text" : "clip -1. 1."
												}

											}
, 											{
												"box" : 												{
													"id" : "obj-60",
													"maxclass" : "newobj",
													"numinlets" : 2,
													"numoutlets" : 1,
													"outlettype" : [ "float" ],
													"patching_rect" : [ 50.0, 153.0, 31.0, 22.0 ],
													"presentation_rect" : [ 50.0, 153.0, 31.0, 22.0 ],
													"style" : "",
													"text" : "+ 0."
												}

											}
, 											{
												"box" : 												{
													"id" : "obj-65",
													"maxclass" : "newobj",
													"numinlets" : 2,
													"numoutlets" : 1,
													"outlettype" : [ "float" ],
													"patching_rect" : [ 50.0, 100.0, 29.5, 22.0 ],
													"presentation_rect" : [ 50.0, 100.0, 29.5, 22.0 ],
													"style" : "",
													"text" : "* 1."
												}

											}
, 											{
												"box" : 												{
													"comment" : "",
													"id" : "obj-59",
													"index" : 1,
													"maxclass" : "inlet",
													"numinlets" : 0,
													"numoutlets" : 1,
													"outlettype" : [ "float" ],
													"patching_rect" : [ 50.0, 40.0, 30.0, 30.0 ],
													"presentation_rect" : [ 50.0, 40.0, 30.0, 30.0 ],
													"style" : ""
												}

											}
, 											{
												"box" : 												{
													"comment" : "",
													"id" : "obj-61",
													"index" : 2,
													"maxclass" : "inlet",
													"numinlets" : 0,
													"numoutlets" : 1,
													"outlettype" : [ "float" ],
													"patching_rect" : [ 85.0, 40.0, 30.0, 30.0 ],
													"presentation_rect" : [ 85.0, 40.0, 30.0, 30.0 ],
													"style" : ""
												}

											}
, 											{
												"box" : 												{
													"comment" : "",
													"id" : "obj-62",
													"index" : 3,
													"maxclass" : "inlet",
													"numinlets" : 0,
													"numoutlets" : 1,
													"outlettype" : [ "float" ],
													"patching_rect" : [ 120.0, 40.0, 30.0, 30.0 ],
													"presentation_rect" : [ 120.0, 40.0, 30.0, 30.0 ],
													"style" : ""
												}

											}
, 											{
												"box" : 												{
													"comment" : "",
													"id" : "obj-63",
													"index" : 1,
													"maxclass" : "outlet",
													"numinlets" : 1,
													"numoutlets" : 0,
													"patching_rect" : [ 50.0, 268.0, 30.0, 30.0 ],
													"presentation_rect" : [ 50.0, 268.0, 30.0, 30.0 ],
													"style" : ""
												}

											}
 ],
										"lines" : [ 											{
												"patchline" : 												{
													"destination" : [ "obj-65", 0 ],
													"source" : [ "obj-59", 0 ]
												}

											}
, 											{
												"patchline" : 												{
													"destination" : [ "obj-8", 0 ],
													"source" : [ "obj-60", 0 ]
												}

											}
, 											{
												"patchline" : 												{
													"destination" : [ "obj-65", 1 ],
													"source" : [ "obj-61", 0 ]
												}

											}
, 											{
												"patchline" : 												{
													"destination" : [ "obj-60", 1 ],
													"source" : [ "obj-62", 0 ]
												}

											}
, 											{
												"patchline" : 												{
													"destination" : [ "obj-60", 0 ],
													"source" : [ "obj-65", 0 ]
												}

											}
, 											{
												"patchline" : 												{
													"destination" : [ "obj-63", 0 ],
													"source" : [ "obj-8", 0 ]
												}

											}
 ]
									}
,
									"patching_rect" : [ 127.0, 333.0, 428.0, 22.0 ],
									"presentation_rect" : [ 127.0, 333.0, 428.0, 22.0 ],
									"saved_object_attributes" : 									{
										"description" : "",
										"digest" : "",
										"globalpatchername" : "",
										"style" : "",
										"tags" : ""
									}
,
									"style" : "",
									"text" : "p depth offset"
								}

							}
, 							{
								"box" : 								{
									"fontname" : "Arial",
									"fontsize" : 12.0,
									"id" : "obj-53",
									"maxclass" : "newobj",
									"numinlets" : 2,
									"numoutlets" : 2,
									"outlettype" : [ "", "" ],
									"patching_rect" : [ 50.0, 386.5, 53.0, 22.0 ],
									"presentation_rect" : [ 50.0, 386.5, 53.0, 22.0 ],
									"style" : "",
									"text" : "zl.group"
								}

							}
, 							{
								"box" : 								{
									"id" : "obj-44",
									"maxclass" : "newobj",
									"numinlets" : 2,
									"numoutlets" : 4,
									"outlettype" : [ "", "", "", "" ],
									"patching_rect" : [ 127.0, 100.0, 227.5, 22.0 ],
									"presentation_rect" : [ 127.0, 100.0, 227.5, 22.0 ],
									"style" : "",
									"text" : "gate 4"
								}

							}
, 							{
								"box" : 								{
									"comment" : "",
									"id" : "obj-148",
									"index" : 1,
									"maxclass" : "inlet",
									"numinlets" : 0,
									"numoutlets" : 1,
									"outlettype" : [ "bang" ],
									"patching_rect" : [ 50.0, 40.0, 30.0, 30.0 ],
									"presentation_rect" : [ 50.0, 40.0, 30.0, 30.0 ],
									"style" : ""
								}

							}
, 							{
								"box" : 								{
									"comment" : "",
									"id" : "obj-149",
									"index" : 3,
									"maxclass" : "inlet",
									"numinlets" : 0,
									"numoutlets" : 1,
									"outlettype" : [ "int" ],
									"patching_rect" : [ 127.0, 40.0, 30.0, 30.0 ],
									"presentation_rect" : [ 127.0, 40.0, 30.0, 30.0 ],
									"style" : ""
								}

							}
, 							{
								"box" : 								{
									"comment" : "",
									"id" : "obj-150",
									"index" : 4,
									"maxclass" : "inlet",
									"numinlets" : 0,
									"numoutlets" : 1,
									"outlettype" : [ "float" ],
									"patching_rect" : [ 441.0, 54.0, 30.0, 30.0 ],
									"presentation_rect" : [ 441.0, 54.0, 30.0, 30.0 ],
									"style" : ""
								}

							}
, 							{
								"box" : 								{
									"comment" : "",
									"id" : "obj-151",
									"index" : 5,
									"maxclass" : "inlet",
									"numinlets" : 0,
									"numoutlets" : 1,
									"outlettype" : [ "float" ],
									"patching_rect" : [ 488.5, 54.0, 30.0, 30.0 ],
									"presentation_rect" : [ 488.5, 54.0, 30.0, 30.0 ],
									"style" : ""
								}

							}
, 							{
								"box" : 								{
									"comment" : "",
									"id" : "obj-152",
									"index" : 2,
									"maxclass" : "inlet",
									"numinlets" : 0,
									"numoutlets" : 1,
									"outlettype" : [ "int" ],
									"patching_rect" : [ 89.0, 40.0, 30.0, 30.0 ],
									"presentation_rect" : [ 89.0, 40.0, 30.0, 30.0 ],
									"style" : ""
								}

							}
, 							{
								"box" : 								{
									"comment" : "",
									"id" : "obj-153",
									"index" : 6,
									"maxclass" : "inlet",
									"numinlets" : 0,
									"numoutlets" : 1,
									"outlettype" : [ "float" ],
									"patching_rect" : [ 532.5, 54.0, 30.0, 30.0 ],
									"presentation_rect" : [ 532.5, 54.0, 30.0, 30.0 ],
									"style" : ""
								}

							}
, 							{
								"box" : 								{
									"comment" : "",
									"id" : "obj-154",
									"index" : 1,
									"maxclass" : "outlet",
									"numinlets" : 1,
									"numoutlets" : 0,
									"patching_rect" : [ 50.0, 468.5, 30.0, 30.0 ],
									"presentation_rect" : [ 50.0, 468.5, 30.0, 30.0 ],
									"style" : ""
								}

							}
 ],
						"lines" : [ 							{
								"patchline" : 								{
									"destination" : [ "obj-64", 0 ],
									"source" : [ "obj-133", 0 ]
								}

							}
, 							{
								"patchline" : 								{
									"destination" : [ "obj-53", 0 ],
									"source" : [ "obj-148", 0 ]
								}

							}
, 							{
								"patchline" : 								{
									"destination" : [ "obj-44", 0 ],
									"source" : [ "obj-149", 0 ]
								}

							}
, 							{
								"patchline" : 								{
									"destination" : [ "obj-83", 1 ],
									"source" : [ "obj-150", 0 ]
								}

							}
, 							{
								"patchline" : 								{
									"destination" : [ "obj-64", 1 ],
									"source" : [ "obj-151", 0 ]
								}

							}
, 							{
								"patchline" : 								{
									"destination" : [ "obj-44", 1 ],
									"source" : [ "obj-152", 0 ]
								}

							}
, 							{
								"patchline" : 								{
									"destination" : [ "obj-64", 2 ],
									"source" : [ "obj-153", 0 ]
								}

							}
, 							{
								"patchline" : 								{
									"destination" : [ "obj-133", 0 ],
									"source" : [ "obj-44", 3 ]
								}

							}
, 							{
								"patchline" : 								{
									"destination" : [ "obj-69", 0 ],
									"source" : [ "obj-44", 0 ]
								}

							}
, 							{
								"patchline" : 								{
									"destination" : [ "obj-73", 0 ],
									"source" : [ "obj-44", 1 ]
								}

							}
, 							{
								"patchline" : 								{
									"destination" : [ "obj-83", 0 ],
									"source" : [ "obj-44", 2 ]
								}

							}
, 							{
								"patchline" : 								{
									"destination" : [ "obj-154", 0 ],
									"source" : [ "obj-53", 0 ]
								}

							}
, 							{
								"patchline" : 								{
									"destination" : [ "obj-53", 0 ],
									"source" : [ "obj-64", 0 ]
								}

							}
, 							{
								"patchline" : 								{
									"destination" : [ "obj-64", 0 ],
									"source" : [ "obj-69", 0 ]
								}

							}
, 							{
								"patchline" : 								{
									"destination" : [ "obj-64", 0 ],
									"source" : [ "obj-73", 0 ]
								}

							}
, 							{
								"patchline" : 								{
									"destination" : [ "obj-64", 0 ],
									"source" : [ "obj-83", 0 ]
								}

							}
 ]
					}
,
					"patching_rect" : [ 208.0, 409.5, 505.0, 22.0 ],
					"presentation_rect" : [ 208.0, 409.5, 505.0, 22.0 ],
					"saved_object_attributes" : 					{
						"description" : "",
						"digest" : "",
						"globalpatchername" : "",
						"style" : "",
						"tags" : ""
					}
,
					"style" : "",
					"text" : "p"
				}

			}
, 			{
				"box" : 				{
					"id" : "obj-135",
					"maxclass" : "newobj",
					"numinlets" : 6,
					"numoutlets" : 1,
					"outlettype" : [ "" ],
					"patching_rect" : [ 462.0, 227.0, 105.0, 22.0 ],
					"presentation_rect" : [ 462.0, 193.0, 105.0, 22.0 ],
					"style" : "",
					"text" : "scale 0 127 0 200"
				}

			}
, 			{
				"box" : 				{
					"id" : "obj-136",
					"maxclass" : "newobj",
					"numinlets" : 2,
					"numoutlets" : 3,
					"outlettype" : [ "bang", "bang", "int" ],
					"patching_rect" : [ 240.5, 489.0, 61.0, 22.0 ],
					"presentation_rect" : [ 240.5, 489.0, 61.0, 22.0 ],
					"style" : "",
					"text" : "Uzi 200 0"
				}

			}
, 			{
				"box" : 				{
					"id" : "obj-62",
					"maxclass" : "newobj",
					"numinlets" : 2,
					"numoutlets" : 1,
					"outlettype" : [ "int" ],
					"patching_rect" : [ 282.5, 534.5, 41.0, 22.0 ],
					"presentation_rect" : [ 282.5, 534.5, 41.0, 22.0 ],
					"style" : "",
					"text" : "+ 0"
				}

			}
, 			{
				"box" : 				{
					"id" : "obj-63",
					"maxclass" : "newobj",
					"numinlets" : 1,
					"numoutlets" : 2,
					"outlettype" : [ "bang", "float" ],
					"patching_rect" : [ 240.5, 451.0, 83.0, 22.0 ],
					"presentation_rect" : [ 240.5, 451.0, 83.0, 22.0 ],
					"style" : "",
					"text" : "t b f"
				}

			}
, 			{
				"box" : 				{
					"id" : "obj-79",
					"maxclass" : "comment",
					"numinlets" : 1,
					"numoutlets" : 0,
					"patching_rect" : [ 652.0, 50.0, 49.0, 20.0 ],
					"presentation_rect" : [ 652.0, 50.0, 49.0, 20.0 ],
					"style" : "",
					"text" : "duty"
				}

			}
, 			{
				"box" : 				{
					"id" : "obj-78",
					"maxclass" : "comment",
					"numinlets" : 1,
					"numoutlets" : 0,
					"patching_rect" : [ 996.0, 53.5, 49.0, 20.0 ],
					"presentation_rect" : [ 996.0, 53.5, 49.0, 20.0 ],
					"style" : "",
					"text" : "offset"
				}

			}
, 			{
				"box" : 				{
					"id" : "obj-77",
					"maxclass" : "comment",
					"numinlets" : 1,
					"numoutlets" : 0,
					"patching_rect" : [ 839.0, 33.5, 49.0, 20.0 ],
					"presentation_rect" : [ 839.0, 33.5, 49.0, 20.0 ],
					"style" : "",
					"text" : "depth"
				}

			}
, 			{
				"box" : 				{
					"id" : "obj-74",
					"maxclass" : "newobj",
					"numinlets" : 1,
					"numoutlets" : 2,
					"outlettype" : [ "bang", "float" ],
					"patching_rect" : [ 607.0, 205.5, 31.0, 22.0 ],
					"presentation_rect" : [ 607.0, 171.5, 31.0, 22.0 ],
					"style" : "",
					"text" : "t b f"
				}

			}
, 			{
				"box" : 				{
					"id" : "obj-66",
					"maxclass" : "newobj",
					"numinlets" : 1,
					"numoutlets" : 2,
					"outlettype" : [ "bang", "float" ],
					"patching_rect" : [ 941.0, 200.5, 31.0, 22.0 ],
					"presentation_rect" : [ 941.0, 166.5, 31.0, 22.0 ],
					"style" : "",
					"text" : "t b f"
				}

			}
, 			{
				"box" : 				{
					"id" : "obj-65",
					"maxclass" : "newobj",
					"numinlets" : 1,
					"numoutlets" : 2,
					"outlettype" : [ "bang", "float" ],
					"patching_rect" : [ 800.0, 200.5, 31.0, 22.0 ],
					"presentation_rect" : [ 800.0, 166.5, 31.0, 22.0 ],
					"style" : "",
					"text" : "t b f"
				}

			}
, 			{
				"box" : 				{
					"id" : "obj-54",
					"maxclass" : "newobj",
					"numinlets" : 1,
					"numoutlets" : 2,
					"outlettype" : [ "bang", "int" ],
					"patching_rect" : [ 105.0, 188.5, 117.0, 22.0 ],
					"presentation_rect" : [ 105.0, 188.5, 117.0, 22.0 ],
					"style" : "",
					"text" : "t b i"
				}

			}
, 			{
				"box" : 				{
					"id" : "obj-50",
					"maxclass" : "newobj",
					"numinlets" : 2,
					"numoutlets" : 1,
					"outlettype" : [ "bang" ],
					"patching_rect" : [ 105.0, 283.0, 49.0, 22.0 ],
					"presentation_rect" : [ 105.0, 283.0, 49.0, 22.0 ],
					"style" : "",
					"text" : "delay 5"
				}

			}
, 			{
				"box" : 				{
					"id" : "obj-46",
					"maxclass" : "newobj",
					"numinlets" : 1,
					"numoutlets" : 1,
					"outlettype" : [ "bang" ],
					"patching_rect" : [ 50.0, 226.5, 60.0, 22.0 ],
					"presentation_rect" : [ 50.0, 226.5, 60.0, 22.0 ],
					"style" : "",
					"text" : "loadbang"
				}

			}
, 			{
				"box" : 				{
					"id" : "obj-49",
					"maxclass" : "newobj",
					"numinlets" : 2,
					"numoutlets" : 3,
					"outlettype" : [ "bang", "bang", "int" ],
					"patching_rect" : [ 105.0, 318.0, 61.0, 22.0 ],
					"presentation_rect" : [ 105.0, 318.0, 61.0, 22.0 ],
					"style" : "",
					"text" : "Uzi 200 0"
				}

			}
, 			{
				"box" : 				{
					"id" : "obj-48",
					"maxclass" : "newobj",
					"numinlets" : 2,
					"numoutlets" : 1,
					"outlettype" : [ "int" ],
					"patching_rect" : [ 105.0, 157.5, 29.5, 22.0 ],
					"presentation_rect" : [ 105.0, 157.5, 29.5, 22.0 ],
					"style" : "",
					"text" : "+ 1"
				}

			}
, 			{
				"box" : 				{
					"comment" : "",
					"id" : "obj-166",
					"index" : 0,
					"maxclass" : "inlet",
					"numinlets" : 0,
					"numoutlets" : 1,
					"outlettype" : [ "" ],
					"patching_rect" : [ 105.0, 40.0, 30.0, 30.0 ],
					"presentation_rect" : [ 105.0, 40.0, 30.0, 30.0 ],
					"style" : ""
				}

			}
, 			{
				"box" : 				{
					"comment" : "",
					"id" : "obj-167",
					"index" : 0,
					"maxclass" : "inlet",
					"numinlets" : 0,
					"numoutlets" : 1,
					"outlettype" : [ "" ],
					"patching_rect" : [ 462.0, 40.0, 30.0, 30.0 ],
					"presentation_rect" : [ 462.0, 40.0, 30.0, 30.0 ],
					"style" : ""
				}

			}
, 			{
				"box" : 				{
					"comment" : "",
					"id" : "obj-168",
					"index" : 0,
					"maxclass" : "inlet",
					"numinlets" : 0,
					"numoutlets" : 1,
					"outlettype" : [ "" ],
					"patching_rect" : [ 607.0, 40.0, 30.0, 30.0 ],
					"presentation_rect" : [ 607.0, 40.0, 30.0, 30.0 ],
					"style" : ""
				}

			}
, 			{
				"box" : 				{
					"comment" : "",
					"id" : "obj-169",
					"index" : 0,
					"maxclass" : "inlet",
					"numinlets" : 0,
					"numoutlets" : 1,
					"outlettype" : [ "" ],
					"patching_rect" : [ 800.0, 40.0, 30.0, 30.0 ],
					"presentation_rect" : [ 800.0, 40.0, 30.0, 30.0 ],
					"style" : ""
				}

			}
, 			{
				"box" : 				{
					"comment" : "",
					"id" : "obj-170",
					"index" : 0,
					"maxclass" : "inlet",
					"numinlets" : 0,
					"numoutlets" : 1,
					"outlettype" : [ "" ],
					"patching_rect" : [ 941.0, 40.0, 30.0, 30.0 ],
					"presentation_rect" : [ 941.0, 40.0, 30.0, 30.0 ],
					"style" : ""
				}

			}
, 			{
				"box" : 				{
					"comment" : "",
					"id" : "obj-171",
					"index" : 0,
					"maxclass" : "outlet",
					"numinlets" : 1,
					"numoutlets" : 0,
					"patching_rect" : [ 218.5, 807.0, 30.0, 30.0 ],
					"presentation_rect" : [ 218.5, 807.0, 30.0, 30.0 ],
					"style" : ""
				}

			}
, 			{
				"box" : 				{
					"comment" : "",
					"id" : "obj-172",
					"index" : 0,
					"maxclass" : "outlet",
					"numinlets" : 1,
					"numoutlets" : 0,
					"patching_rect" : [ 288.5, 814.0, 30.0, 30.0 ],
					"presentation_rect" : [ 288.5, 814.0, 30.0, 30.0 ],
					"style" : ""
				}

			}
 ],
		"lines" : [ 			{
				"patchline" : 				{
					"destination" : [ "obj-135", 0 ],
					"source" : [ "obj-1", 0 ]
				}

			}
, 			{
				"patchline" : 				{
					"destination" : [ "obj-63", 0 ],
					"source" : [ "obj-135", 0 ]
				}

			}
, 			{
				"patchline" : 				{
					"destination" : [ "obj-158", 0 ],
					"source" : [ "obj-136", 1 ]
				}

			}
, 			{
				"patchline" : 				{
					"destination" : [ "obj-62", 0 ],
					"source" : [ "obj-136", 2 ]
				}

			}
, 			{
				"patchline" : 				{
					"destination" : [ "obj-74", 0 ],
					"source" : [ "obj-15", 0 ]
				}

			}
, 			{
				"patchline" : 				{
					"destination" : [ "obj-171", 0 ],
					"source" : [ "obj-155", 0 ]
				}

			}
, 			{
				"patchline" : 				{
					"destination" : [ "obj-172", 0 ],
					"source" : [ "obj-158", 0 ]
				}

			}
, 			{
				"patchline" : 				{
					"destination" : [ "obj-171", 0 ],
					"source" : [ "obj-164", 0 ]
				}

			}
, 			{
				"patchline" : 				{
					"destination" : [ "obj-48", 0 ],
					"source" : [ "obj-166", 0 ]
				}

			}
, 			{
				"patchline" : 				{
					"destination" : [ "obj-6", 0 ],
					"source" : [ "obj-167", 0 ]
				}

			}
, 			{
				"patchline" : 				{
					"destination" : [ "obj-7", 0 ],
					"source" : [ "obj-168", 0 ]
				}

			}
, 			{
				"patchline" : 				{
					"destination" : [ "obj-8", 0 ],
					"source" : [ "obj-169", 0 ]
				}

			}
, 			{
				"patchline" : 				{
					"destination" : [ "obj-9", 0 ],
					"source" : [ "obj-170", 0 ]
				}

			}
, 			{
				"patchline" : 				{
					"destination" : [ "obj-15", 0 ],
					"source" : [ "obj-2", 0 ]
				}

			}
, 			{
				"patchline" : 				{
					"destination" : [ "obj-65", 0 ],
					"source" : [ "obj-4", 0 ]
				}

			}
, 			{
				"patchline" : 				{
					"destination" : [ "obj-50", 0 ],
					"source" : [ "obj-46", 0 ]
				}

			}
, 			{
				"patchline" : 				{
					"destination" : [ "obj-54", 0 ],
					"source" : [ "obj-48", 0 ]
				}

			}
, 			{
				"patchline" : 				{
					"destination" : [ "obj-155", 1 ],
					"source" : [ "obj-49", 2 ]
				}

			}
, 			{
				"patchline" : 				{
					"destination" : [ "obj-155", 0 ],
					"source" : [ "obj-49", 1 ]
				}

			}
, 			{
				"patchline" : 				{
					"destination" : [ "obj-66", 0 ],
					"source" : [ "obj-5", 0 ]
				}

			}
, 			{
				"patchline" : 				{
					"destination" : [ "obj-136", 0 ],
					"order" : 0,
					"source" : [ "obj-50", 0 ]
				}

			}
, 			{
				"patchline" : 				{
					"destination" : [ "obj-49", 0 ],
					"order" : 1,
					"source" : [ "obj-50", 0 ]
				}

			}
, 			{
				"patchline" : 				{
					"destination" : [ "obj-155", 2 ],
					"order" : 1,
					"source" : [ "obj-54", 1 ]
				}

			}
, 			{
				"patchline" : 				{
					"destination" : [ "obj-158", 2 ],
					"order" : 0,
					"source" : [ "obj-54", 1 ]
				}

			}
, 			{
				"patchline" : 				{
					"destination" : [ "obj-50", 0 ],
					"source" : [ "obj-54", 0 ]
				}

			}
, 			{
				"patchline" : 				{
					"destination" : [ "obj-1", 0 ],
					"source" : [ "obj-6", 0 ]
				}

			}
, 			{
				"patchline" : 				{
					"destination" : [ "obj-158", 1 ],
					"source" : [ "obj-62", 0 ]
				}

			}
, 			{
				"patchline" : 				{
					"destination" : [ "obj-136", 0 ],
					"source" : [ "obj-63", 0 ]
				}

			}
, 			{
				"patchline" : 				{
					"destination" : [ "obj-62", 1 ],
					"source" : [ "obj-63", 1 ]
				}

			}
, 			{
				"patchline" : 				{
					"destination" : [ "obj-155", 4 ],
					"order" : 1,
					"source" : [ "obj-65", 1 ]
				}

			}
, 			{
				"patchline" : 				{
					"destination" : [ "obj-158", 4 ],
					"order" : 0,
					"source" : [ "obj-65", 1 ]
				}

			}
, 			{
				"patchline" : 				{
					"destination" : [ "obj-50", 0 ],
					"source" : [ "obj-65", 0 ]
				}

			}
, 			{
				"patchline" : 				{
					"destination" : [ "obj-155", 5 ],
					"order" : 1,
					"source" : [ "obj-66", 1 ]
				}

			}
, 			{
				"patchline" : 				{
					"destination" : [ "obj-158", 5 ],
					"order" : 0,
					"source" : [ "obj-66", 1 ]
				}

			}
, 			{
				"patchline" : 				{
					"destination" : [ "obj-50", 0 ],
					"source" : [ "obj-66", 0 ]
				}

			}
, 			{
				"patchline" : 				{
					"destination" : [ "obj-2", 0 ],
					"source" : [ "obj-7", 0 ]
				}

			}
, 			{
				"patchline" : 				{
					"destination" : [ "obj-155", 3 ],
					"order" : 1,
					"source" : [ "obj-74", 1 ]
				}

			}
, 			{
				"patchline" : 				{
					"destination" : [ "obj-158", 3 ],
					"order" : 0,
					"source" : [ "obj-74", 1 ]
				}

			}
, 			{
				"patchline" : 				{
					"destination" : [ "obj-50", 0 ],
					"source" : [ "obj-74", 0 ]
				}

			}
, 			{
				"patchline" : 				{
					"destination" : [ "obj-4", 0 ],
					"source" : [ "obj-8", 0 ]
				}

			}
, 			{
				"patchline" : 				{
					"destination" : [ "obj-5", 0 ],
					"source" : [ "obj-9", 0 ]
				}

			}
 ],
		"dependency_cache" : [  ],
		"autosave" : 0,
		"styles" : [ 			{
				"name" : "AudioStatus_Menu",
				"default" : 				{
					"bgfillcolor" : 					{
						"type" : "color",
						"color" : [ 0.294118, 0.313726, 0.337255, 1 ],
						"color1" : [ 0.454902, 0.462745, 0.482353, 0.0 ],
						"color2" : [ 0.290196, 0.309804, 0.301961, 1.0 ],
						"angle" : 270.0,
						"proportion" : 0.39,
						"autogradient" : 0
					}

				}
,
				"parentstyle" : "",
				"multi" : 0
			}
, 			{
				"name" : "Luca",
				"default" : 				{
					"bgfillcolor" : 					{
						"type" : "gradient",
						"color" : [ 0.290196, 0.309804, 0.301961, 1.0 ],
						"color1" : [ 0.862745, 0.870588, 0.878431, 1.0 ],
						"color2" : [ 0.65098, 0.666667, 0.662745, 1.0 ],
						"angle" : 270.0,
						"proportion" : 0.39,
						"autogradient" : 0
					}
,
					"selectioncolor" : [ 0.720698, 0.16723, 0.080014, 1.0 ],
					"fontname" : [ "Open Sans Semibold" ],
					"bgcolor" : [ 0.904179, 0.895477, 0.842975, 0.56 ],
					"textcolor_inverse" : [ 0.239216, 0.254902, 0.278431, 1.0 ],
					"color" : [ 0.475135, 0.293895, 0.251069, 1.0 ],
					"accentcolor" : [ 0.32549, 0.345098, 0.372549, 1.0 ],
					"elementcolor" : [ 0.786675, 0.801885, 0.845022, 1.0 ]
				}
,
				"parentstyle" : "",
				"multi" : 0
			}
, 			{
				"name" : "MD Blue",
				"default" : 				{
					"fontsize" : [ 13.0 ],
					"fontname" : [ "Trebuchet MS" ],
					"textjustification" : [ 0 ],
					"bgcolor" : [ 0.095481, 0.100396, 0.100293, 1.0 ],
					"patchlinecolor" : [ 0.011765, 0.396078, 0.752941, 0.9 ],
					"accentcolor" : [ 0.403922, 0.498039, 0.666667, 1.0 ],
					"elementcolor" : [ 0.326117, 0.358336, 0.307924, 1.0 ]
				}
,
				"parentstyle" : "",
				"multi" : 0
			}
, 			{
				"name" : "helpfile_label-1",
				"default" : 				{
					"fontsize" : [ 13.0 ],
					"fontname" : [ "Arial" ],
					"textcolor" : [ 0.501961, 0.501961, 0.501961, 1.0 ]
				}
,
				"parentstyle" : "",
				"multi" : 0
			}
, 			{
				"name" : "newobjBlue-1",
				"default" : 				{
					"accentcolor" : [ 0.317647, 0.654902, 0.976471, 1.0 ]
				}
,
				"parentstyle" : "",
				"multi" : 0
			}
, 			{
				"name" : "newobjBrown-1",
				"default" : 				{
					"accentcolor" : [ 0.654902, 0.572549, 0.376471, 1.0 ]
				}
,
				"parentstyle" : "",
				"multi" : 0
			}
, 			{
				"name" : "newobjCyan-1",
				"default" : 				{
					"accentcolor" : [ 0.029546, 0.773327, 0.821113, 1.0 ]
				}
,
				"parentstyle" : "",
				"multi" : 0
			}
, 			{
				"name" : "newobjGreen-1",
				"default" : 				{
					"accentcolor" : [ 0.0, 0.533333, 0.168627, 1.0 ]
				}
,
				"parentstyle" : "",
				"multi" : 0
			}
, 			{
				"name" : "newobjRed-1",
				"default" : 				{
					"accentcolor" : [ 0.784314, 0.145098, 0.023529, 1.0 ]
				}
,
				"parentstyle" : "",
				"multi" : 0
			}
, 			{
				"name" : "newobjYellow-1",
				"default" : 				{
					"fontsize" : [ 12.059008 ],
					"accentcolor" : [ 0.82517, 0.78181, 0.059545, 1.0 ]
				}
,
				"parentstyle" : "",
				"multi" : 0
			}
, 			{
				"name" : "numberGold-1",
				"default" : 				{
					"accentcolor" : [ 0.764706, 0.592157, 0.101961, 1.0 ]
				}
,
				"parentstyle" : "",
				"multi" : 0
			}
, 			{
				"name" : "panelViolet",
				"default" : 				{
					"bgfillcolor" : 					{
						"type" : "color",
						"color" : [ 0.372549, 0.196078, 0.486275, 0.2 ],
						"color1" : [ 0.454902, 0.462745, 0.482353, 1.0 ],
						"color2" : [ 0.290196, 0.309804, 0.301961, 1.0 ],
						"angle" : 270.0,
						"proportion" : 0.39,
						"autogradient" : 0
					}

				}
,
				"parentstyle" : "",
				"multi" : 0
			}
, 			{
				"name" : "scope~001",
				"default" : 				{
					"color" : [ 0.960784, 0.827451, 0.156863, 1.0 ],
					"accentcolor" : [ 0.439216, 0.447059, 0.47451, 1.0 ]
				}
,
				"parentstyle" : "",
				"multi" : 0
			}
, 			{
				"name" : "sliderGold-1",
				"default" : 				{
					"color" : [ 0.907107, 0.934609, 0.842715, 1.0 ],
					"accentcolor" : [ 0.764706, 0.592157, 0.101961, 1.0 ]
				}
,
				"parentstyle" : "",
				"multi" : 0
			}
, 			{
				"name" : "test",
				"default" : 				{
					"fontface" : [ 1 ],
					"fontsize" : [ 10.0 ]
				}
,
				"parentstyle" : "",
				"multi" : 0
			}
 ]
	}

}
