{
	"patcher" : 	{
		"fileversion" : 1,
		"appversion" : 		{
			"major" : 7,
			"minor" : 3,
			"revision" : 5,
			"architecture" : "x64",
			"modernui" : 1
		}
,
		"rect" : [ 42.0, 85.0, 735.0, 617.0 ],
		"bglocked" : 0,
		"openinpresentation" : 1,
		"default_fontsize" : 12.0,
		"default_fontface" : 0,
		"default_fontname" : "Arial",
		"gridonopen" : 1,
		"gridsize" : [ 15.0, 15.0 ],
		"gridsnaponopen" : 1,
		"objectsnaponopen" : 1,
		"statusbarvisible" : 2,
		"toolbarvisible" : 1,
		"lefttoolbarpinned" : 0,
		"toptoolbarpinned" : 0,
		"righttoolbarpinned" : 0,
		"bottomtoolbarpinned" : 0,
		"toolbars_unpinned_last_save" : 0,
		"tallnewobj" : 0,
		"boxanimatetime" : 200,
		"enablehscroll" : 1,
		"enablevscroll" : 1,
		"devicewidth" : 0.0,
		"description" : "",
		"digest" : "",
		"tags" : "",
		"style" : "",
		"subpatcher_template" : "",
		"boxes" : [ 			{
				"box" : 				{
					"id" : "obj-24",
					"maxclass" : "newobj",
					"numinlets" : 1,
					"numoutlets" : 1,
					"outlettype" : [ "To" ],
					"patching_rect" : [ 1263.0, 135.0, 30.0, 22.0 ],
					"style" : "",
					"text" : "t To"
				}

			}
, 			{
				"box" : 				{
					"id" : "obj-8",
					"maxclass" : "newobj",
					"numinlets" : 1,
					"numoutlets" : 1,
					"outlettype" : [ "From" ],
					"patching_rect" : [ 1182.0, 135.0, 45.0, 22.0 ],
					"style" : "",
					"text" : "t From"
				}

			}
, 			{
				"box" : 				{
					"id" : "obj-5",
					"maxclass" : "newobj",
					"numinlets" : 3,
					"numoutlets" : 3,
					"outlettype" : [ "bang", "bang", "" ],
					"patching_rect" : [ 1182.0, 96.666687, 181.0, 22.0 ],
					"style" : "",
					"text" : "sel Out In"
				}

			}
, 			{
				"box" : 				{
					"id" : "obj-27",
					"linecount" : 2,
					"maxclass" : "message",
					"numinlets" : 2,
					"numoutlets" : 1,
					"outlettype" : [ "" ],
					"patching_rect" : [ 1154.0, 244.452667, 177.0, 36.0 ],
					"presentation_linecount" : 3,
					"presentation_rect" : [ 1182.0, 115.452675, 109.0, 35.0 ],
					"style" : "",
					"text" : ";\n---tracker newTrack #7 $1 #2"
				}

			}
, 			{
				"box" : 				{
					"comment" : "",
					"id" : "obj-4",
					"index" : 5,
					"maxclass" : "inlet",
					"numinlets" : 0,
					"numoutlets" : 1,
					"outlettype" : [ "" ],
					"patching_rect" : [ 1182.0, 31.333334, 30.0, 30.0 ],
					"presentation_rect" : [ 1182.0, 31.333334, 30.0, 30.0 ],
					"style" : ""
				}

			}
, 			{
				"box" : 				{
					"attr" : "gridsize",
					"id" : "obj-35",
					"maxclass" : "attrui",
					"numinlets" : 1,
					"numoutlets" : 1,
					"outlettype" : [ "" ],
					"patching_rect" : [ 643.0, 973.0, 150.0, 22.0 ],
					"presentation_rect" : [ 643.0, 973.0, 150.0, 22.0 ],
					"style" : ""
				}

			}
, 			{
				"box" : 				{
					"id" : "obj-31",
					"linecount" : 2,
					"maxclass" : "message",
					"numinlets" : 2,
					"numoutlets" : 1,
					"outlettype" : [ "" ],
					"patching_rect" : [ 888.0, 115.452675, 208.0, 36.0 ],
					"presentation_linecount" : 2,
					"presentation_rect" : [ 888.0, 115.452675, 208.0, 35.0 ],
					"style" : "",
					"text" : "overloadcolor #4 #5 #6 1, warmcolor #4 #5 #6 1, coldcolor #4 #5 #6 0.18"
				}

			}
, 			{
				"box" : 				{
					"id" : "obj-29",
					"maxclass" : "message",
					"numinlets" : 2,
					"numoutlets" : 1,
					"outlettype" : [ "" ],
					"patching_rect" : [ 203.769562, 728.177673, 115.0, 22.0 ],
					"presentation_rect" : [ 203.769562, 728.177673, 115.0, 22.0 ],
					"style" : "",
					"text" : "linecolor #4 #5 #6 1"
				}

			}
, 			{
				"box" : 				{
					"id" : "obj-28",
					"maxclass" : "message",
					"numinlets" : 2,
					"numoutlets" : 1,
					"outlettype" : [ "" ],
					"patching_rect" : [ 986.0, 417.0, 131.0, 22.0 ],
					"presentation_rect" : [ 986.0, 417.0, 131.0, 22.0 ],
					"style" : "",
					"text" : "bordercolor #4 #5 #6 1"
				}

			}
, 			{
				"box" : 				{
					"id" : "obj-25",
					"maxclass" : "message",
					"numinlets" : 2,
					"numoutlets" : 1,
					"outlettype" : [ "" ],
					"patching_rect" : [ 794.0, 609.472107, 117.0, 22.0 ],
					"presentation_rect" : [ 794.0, 609.472107, 117.0, 22.0 ],
					"style" : "",
					"text" : "textcolor #4 #5 #6 1"
				}

			}
, 			{
				"box" : 				{
					"id" : "obj-23",
					"maxclass" : "message",
					"numinlets" : 2,
					"numoutlets" : 1,
					"outlettype" : [ "" ],
					"patching_rect" : [ 444.519531, 609.472107, 100.0, 22.0 ],
					"presentation_linecount" : 2,
					"presentation_rect" : [ 444.519531, 609.472107, 90.0, 22.0 ],
					"style" : "",
					"text" : "set #1 Input #2"
				}

			}
, 			{
				"box" : 				{
					"id" : "obj-22",
					"maxclass" : "message",
					"numinlets" : 2,
					"numoutlets" : 1,
					"outlettype" : [ "" ],
					"patching_rect" : [ 545.0, 609.472107, 109.0, 22.0 ],
					"presentation_linecount" : 2,
					"presentation_rect" : [ 545.0, 609.472107, 99.0, 22.0 ],
					"style" : "",
					"text" : "set #1 Output #2"
				}

			}
, 			{
				"box" : 				{
					"id" : "obj-13",
					"maxclass" : "newobj",
					"numinlets" : 1,
					"numoutlets" : 1,
					"outlettype" : [ "bang" ],
					"patching_rect" : [ 663.519531, 163.599915, 60.0, 22.0 ],
					"presentation_rect" : [ 663.519531, 163.599915, 60.0, 22.0 ],
					"style" : "",
					"text" : "loadbang"
				}

			}
, 			{
				"box" : 				{
					"id" : "obj-9",
					"maxclass" : "message",
					"numinlets" : 2,
					"numoutlets" : 1,
					"outlettype" : [ "" ],
					"patching_rect" : [ 656.0, 609.472107, 111.0, 22.0 ],
					"presentation_linecount" : 2,
					"presentation_rect" : [ 656.0, 609.472107, 105.0, 22.0 ],
					"style" : "",
					"text" : "set #1 Sequencer"
				}

			}
, 			{
				"box" : 				{
					"id" : "obj-48",
					"linecolor" : [ 1.0, 0.0, 0.0, 1.0 ],
					"maxclass" : "live.line",
					"numinlets" : 1,
					"numoutlets" : 0,
					"patching_rect" : [ 121.352905, 857.463989, 192.833344, 5.0 ],
					"presentation" : 1,
					"presentation_rect" : [ 3.247101, 72.713989, 72.702911, 5.109789 ],
					"varname" : "rExtFxLine[2]"
				}

			}
, 			{
				"box" : 				{
					"id" : "obj-47",
					"linecolor" : [ 1.0, 0.0, 0.0, 1.0 ],
					"maxclass" : "live.line",
					"numinlets" : 1,
					"numoutlets" : 0,
					"patching_rect" : [ 260.769562, 778.713989, 8.0, 28.083313 ],
					"presentation" : 1,
					"presentation_rect" : [ 350.019562, 14.463989, 5.0, 6.75 ]
				}

			}
, 			{
				"box" : 				{
					"id" : "obj-45",
					"linecolor" : [ 1.0, 0.0, 0.0, 1.0 ],
					"maxclass" : "live.line",
					"numinlets" : 1,
					"numoutlets" : 0,
					"patching_rect" : [ 530.519592, 897.522339, 14.6, 156.422134 ],
					"presentation" : 1,
					"presentation_rect" : [ 421.972473, 36.272335, 5.0, 13.941654 ]
				}

			}
, 			{
				"box" : 				{
					"fontface" : 1,
					"fontsize" : 9.5,
					"id" : "obj-43",
					"maxclass" : "comment",
					"numinlets" : 1,
					"numoutlets" : 0,
					"patching_rect" : [ 603.0, 651.099976, 95.0, 17.0 ],
					"presentation" : 1,
					"presentation_rect" : [ 348.019562, 19.713989, 96.0, 17.0 ],
					"style" : "",
					"text" : "Red Sequencer",
					"textcolor" : [ 1.0, 0.0, 0.0, 1.0 ],
					"textjustification" : 1,
					"varname" : "transportUITitle[2]"
				}

			}
, 			{
				"box" : 				{
					"angle" : 270.0,
					"bgcolor" : [ 0.0, 0.0, 0.0, 0.0 ],
					"border" : 1,
					"bordercolor" : [ 1.0, 0.0, 0.0, 1.0 ],
					"id" : "obj-44",
					"maxclass" : "panel",
					"mode" : 0,
					"numinlets" : 1,
					"numoutlets" : 0,
					"patching_rect" : [ 1015.247131, 643.713989, 113.0, 20.0 ],
					"presentation" : 1,
					"presentation_rect" : [ 348.019562, 19.713989, 96.0, 17.0 ],
					"proportion" : 0.39,
					"style" : "",
					"varname" : "TransportUIBox[4]"
				}

			}
, 			{
				"box" : 				{
					"fontface" : 1,
					"fontsize" : 9.5,
					"id" : "obj-184",
					"maxclass" : "comment",
					"numinlets" : 1,
					"numoutlets" : 0,
					"patching_rect" : [ 656.0, 683.544617, 95.0, 17.0 ],
					"presentation" : 1,
					"presentation_rect" : [ 0.247101, 2.713989, 96.0, 17.0 ],
					"style" : "",
					"text" : "Red Sequencer",
					"textcolor" : [ 1.0, 0.0, 0.0, 1.0 ],
					"textjustification" : 1,
					"varname" : "transportUITitle[6]"
				}

			}
, 			{
				"box" : 				{
					"angle" : 270.0,
					"bgcolor" : [ 0.0, 0.0, 0.0, 0.0 ],
					"border" : 1,
					"bordercolor" : [ 1.0, 0.0, 0.0, 1.0 ],
					"id" : "obj-183",
					"maxclass" : "panel",
					"mode" : 0,
					"numinlets" : 1,
					"numoutlets" : 0,
					"patching_rect" : [ 1019.647095, 875.916748, 113.0, 20.0 ],
					"presentation" : 1,
					"presentation_rect" : [ 0.247101, 2.713989, 96.0, 17.0 ],
					"proportion" : 0.39,
					"style" : "",
					"varname" : "TransportUIBox[6]"
				}

			}
, 			{
				"box" : 				{
					"id" : "obj-42",
					"linecolor" : [ 1.0, 0.0, 0.0, 1.0 ],
					"maxclass" : "live.line",
					"numinlets" : 1,
					"numoutlets" : 0,
					"patching_rect" : [ 177.449997, 442.064026, 8.0, 28.083313 ],
					"presentation" : 1,
					"presentation_rect" : [ 350.019562, 2.463989, 5.0, 13.0 ]
				}

			}
, 			{
				"box" : 				{
					"id" : "obj-34",
					"maxclass" : "newobj",
					"numinlets" : 1,
					"numoutlets" : 1,
					"outlettype" : [ "" ],
					"patcher" : 					{
						"fileversion" : 1,
						"appversion" : 						{
							"major" : 7,
							"minor" : 3,
							"revision" : 5,
							"architecture" : "x64",
							"modernui" : 1
						}
,
						"rect" : [ 1677.0, 137.0, 640.0, 480.0 ],
						"bglocked" : 0,
						"openinpresentation" : 0,
						"default_fontsize" : 12.0,
						"default_fontface" : 0,
						"default_fontname" : "Arial",
						"gridonopen" : 1,
						"gridsize" : [ 15.0, 15.0 ],
						"gridsnaponopen" : 1,
						"objectsnaponopen" : 1,
						"statusbarvisible" : 2,
						"toolbarvisible" : 1,
						"lefttoolbarpinned" : 0,
						"toptoolbarpinned" : 0,
						"righttoolbarpinned" : 0,
						"bottomtoolbarpinned" : 0,
						"toolbars_unpinned_last_save" : 0,
						"tallnewobj" : 0,
						"boxanimatetime" : 200,
						"enablehscroll" : 1,
						"enablevscroll" : 1,
						"devicewidth" : 0.0,
						"description" : "",
						"digest" : "",
						"tags" : "",
						"style" : "",
						"subpatcher_template" : "",
						"boxes" : [ 							{
								"box" : 								{
									"id" : "obj-25",
									"maxclass" : "message",
									"numinlets" : 2,
									"numoutlets" : 1,
									"outlettype" : [ "" ],
									"patching_rect" : [ 94.166687, 137.047318, 35.0, 22.0 ],
									"presentation_rect" : [ 94.166687, 137.047318, 35.0, 22.0 ],
									"style" : "",
									"text" : "-347"
								}

							}
, 							{
								"box" : 								{
									"id" : "obj-24",
									"maxclass" : "message",
									"numinlets" : 2,
									"numoutlets" : 1,
									"outlettype" : [ "" ],
									"patching_rect" : [ 50.0, 137.047318, 29.5, 22.0 ],
									"presentation_rect" : [ 50.0, 137.047318, 29.5, 22.0 ],
									"style" : "",
									"text" : "0"
								}

							}
, 							{
								"box" : 								{
									"id" : "obj-22",
									"maxclass" : "newobj",
									"numinlets" : 3,
									"numoutlets" : 3,
									"outlettype" : [ "bang", "bang", "" ],
									"patching_rect" : [ 50.0, 100.0, 107.333336, 22.0 ],
									"presentation_rect" : [ 50.0, 100.0, 107.333336, 22.0 ],
									"style" : "",
									"text" : "sel 0 1"
								}

							}
, 							{
								"box" : 								{
									"id" : "obj-83",
									"maxclass" : "newobj",
									"numinlets" : 2,
									"numoutlets" : 1,
									"outlettype" : [ "" ],
									"patching_rect" : [ 58.5, 252.713989, 54.0, 22.0 ],
									"presentation_rect" : [ 58.5, 252.713989, 54.0, 22.0 ],
									"style" : "",
									"text" : "pack 0 0"
								}

							}
, 							{
								"box" : 								{
									"id" : "obj-73",
									"maxclass" : "newobj",
									"numinlets" : 1,
									"numoutlets" : 1,
									"outlettype" : [ "" ],
									"patching_rect" : [ 58.5, 299.713989, 88.0, 22.0 ],
									"presentation_rect" : [ 58.5, 299.713989, 88.0, 22.0 ],
									"style" : "",
									"text" : "prepend offset"
								}

							}
, 							{
								"box" : 								{
									"comment" : "",
									"id" : "obj-32",
									"index" : 1,
									"maxclass" : "inlet",
									"numinlets" : 0,
									"numoutlets" : 1,
									"outlettype" : [ "" ],
									"patching_rect" : [ 50.0, 40.0, 30.0, 30.0 ],
									"presentation_rect" : [ 50.0, 40.0, 30.0, 30.0 ],
									"style" : ""
								}

							}
, 							{
								"box" : 								{
									"comment" : "",
									"id" : "obj-33",
									"index" : 1,
									"maxclass" : "outlet",
									"numinlets" : 1,
									"numoutlets" : 0,
									"patching_rect" : [ 58.5, 381.713989, 30.0, 30.0 ],
									"presentation_rect" : [ 58.5, 381.713989, 30.0, 30.0 ],
									"style" : ""
								}

							}
 ],
						"lines" : [ 							{
								"patchline" : 								{
									"destination" : [ "obj-24", 0 ],
									"source" : [ "obj-22", 0 ]
								}

							}
, 							{
								"patchline" : 								{
									"destination" : [ "obj-25", 0 ],
									"source" : [ "obj-22", 1 ]
								}

							}
, 							{
								"patchline" : 								{
									"destination" : [ "obj-83", 0 ],
									"source" : [ "obj-24", 0 ]
								}

							}
, 							{
								"patchline" : 								{
									"destination" : [ "obj-83", 0 ],
									"source" : [ "obj-25", 0 ]
								}

							}
, 							{
								"patchline" : 								{
									"destination" : [ "obj-22", 0 ],
									"source" : [ "obj-32", 0 ]
								}

							}
, 							{
								"patchline" : 								{
									"destination" : [ "obj-33", 0 ],
									"source" : [ "obj-73", 0 ]
								}

							}
, 							{
								"patchline" : 								{
									"destination" : [ "obj-73", 0 ],
									"source" : [ "obj-83", 0 ]
								}

							}
 ]
					}
,
					"patching_rect" : [ 410.352905, 106.952675, 107.333336, 22.0 ],
					"presentation_rect" : [ 410.352905, 106.952675, 107.333336, 22.0 ],
					"saved_object_attributes" : 					{
						"description" : "",
						"digest" : "",
						"globalpatchername" : "",
						"style" : "",
						"tags" : ""
					}
,
					"style" : "",
					"text" : "p"
				}

			}
, 			{
				"box" : 				{
					"id" : "obj-26",
					"maxclass" : "newobj",
					"numinlets" : 1,
					"numoutlets" : 2,
					"outlettype" : [ "", "" ],
					"patching_rect" : [ 410.352905, 146.666687, 69.0, 22.0 ],
					"presentation_rect" : [ 410.352905, 146.666687, 69.0, 22.0 ],
					"save" : [ "#N", "thispatcher", ";", "#Q", "end", ";" ],
					"style" : "",
					"text" : "thispatcher"
				}

			}
, 			{
				"box" : 				{
					"bgcolor" : [ 0.0, 0.019608, 0.078431, 0.0 ],
					"coldcolor" : [ 1.0, 0.0, 0.0, 0.18 ],
					"hotcolor" : [ 1.0, 0.0, 0.0, 0.0 ],
					"id" : "obj-6",
					"inactivecoldcolor" : [ 0.509804, 0.509804, 0.509804, 0.0 ],
					"inactivewarmcolor" : [ 0.584314, 0.584314, 0.584314, 0.0 ],
					"maxclass" : "live.meter~",
					"numinlets" : 1,
					"numoutlets" : 1,
					"orientation" : 1,
					"outlettype" : [ "list" ],
					"overloadcolor" : [ 1.0, 0.0, 0.0, 1.0 ],
					"patching_rect" : [ 899.200073, 110.952675, 30.0, 14.0 ],
					"presentation" : 1,
					"presentation_rect" : [ 654.639221, 59.463989, 30.0, 17.0 ],
					"slidercolor" : [ 0.0, 0.019608, 0.078431, 0.0 ],
					"warmcolor" : [ 1.0, 0.0, 0.0, 1.0 ]
				}

			}
, 			{
				"box" : 				{
					"bgcolor" : [ 0.0, 0.019608, 0.078431, 0.0 ],
					"coldcolor" : [ 1.0, 0.0, 0.0, 0.18 ],
					"hotcolor" : [ 1.0, 0.0, 0.0, 1.0 ],
					"id" : "obj-7",
					"inactivecoldcolor" : [ 0.509804, 0.509804, 0.509804, 0.0 ],
					"inactivewarmcolor" : [ 0.584314, 0.584314, 0.584314, 0.0 ],
					"maxclass" : "live.meter~",
					"numinlets" : 1,
					"numoutlets" : 1,
					"orientation" : 1,
					"outlettype" : [ "list" ],
					"overloadcolor" : [ 1.0, 0.0, 0.0, 1.0 ],
					"patching_rect" : [ 798.200073, 125.952675, 30.0, 14.0 ],
					"presentation" : 1,
					"presentation_rect" : [ 654.639221, 2.463989, 30.0, 17.0 ],
					"slidercolor" : [ 0.0, 0.019608, 0.078431, 0.0 ],
					"warmcolor" : [ 1.0, 0.0, 0.0, 1.0 ]
				}

			}
, 			{
				"box" : 				{
					"id" : "obj-10",
					"linecolor" : [ 1.0, 0.0, 0.0, 1.0 ],
					"maxclass" : "live.line",
					"numinlets" : 1,
					"numoutlets" : 0,
					"patching_rect" : [ 576.533386, 832.661194, 192.833344, 5.0 ],
					"presentation" : 1,
					"presentation_rect" : [ 350.019562, 71.463989, 198.202911, 5.0 ]
				}

			}
, 			{
				"box" : 				{
					"id" : "obj-11",
					"linecolor" : [ 1.0, 0.0, 0.0, 0.0 ],
					"maxclass" : "live.line",
					"numinlets" : 1,
					"numoutlets" : 0,
					"patching_rect" : [ 357.533386, 447.463989, 192.833344, 5.0 ],
					"presentation" : 1,
					"presentation_rect" : [ 350.019562, 14.463989, 197.936234, 5.0 ]
				}

			}
, 			{
				"box" : 				{
					"id" : "obj-12",
					"linecolor" : [ 1.0, 0.0, 0.0, 1.0 ],
					"maxclass" : "live.line",
					"numinlets" : 1,
					"numoutlets" : 0,
					"patching_rect" : [ 596.416687, 911.463989, 8.0, 64.583313 ],
					"presentation" : 1,
					"presentation_rect" : [ 421.972473, 65.797302, 5.5, 6.452698 ]
				}

			}
, 			{
				"box" : 				{
					"id" : "obj-14",
					"linecolor" : [ 1.0, 0.0, 0.0, 1.0 ],
					"maxclass" : "live.line",
					"numinlets" : 1,
					"numoutlets" : 0,
					"patching_rect" : [ 182.580444, 927.577881, 14.6, 156.422134 ],
					"presentation" : 1,
					"presentation_rect" : [ 350.019562, 35.272335, 5.0, 42.551437 ]
				}

			}
, 			{
				"box" : 				{
					"fontface" : 1,
					"fontsize" : 9.5,
					"id" : "obj-15",
					"maxclass" : "comment",
					"numinlets" : 1,
					"numoutlets" : 0,
					"patching_rect" : [ 875.952942, 651.099976, 91.0, 17.0 ],
					"presentation" : 1,
					"presentation_rect" : [ 412.855804, 48.797302, 91.0, 17.0 ],
					"style" : "",
					"text" : "Bypass",
					"textcolor" : [ 1.0, 0.0, 0.0, 1.0 ],
					"textjustification" : 1
				}

			}
, 			{
				"box" : 				{
					"fontface" : 1,
					"fontsize" : 9.5,
					"id" : "obj-16",
					"maxclass" : "comment",
					"numinlets" : 1,
					"numoutlets" : 0,
					"patching_rect" : [ 550.019531, 746.130676, 82.0, 17.0 ],
					"presentation" : 1,
					"presentation_rect" : [ 547.972473, 59.463989, 101.699997, 17.0 ],
					"style" : "",
					"text" : "Red Output 3/4",
					"textcolor" : [ 1.0, 0.0, 0.0, 1.0 ],
					"textjustification" : 1
				}

			}
, 			{
				"box" : 				{
					"angle" : 270.0,
					"bgcolor" : [ 0.0, 0.0, 0.0, 0.0 ],
					"border" : 1,
					"bordercolor" : [ 1.0, 0.0, 0.0, 1.0 ],
					"id" : "obj-17",
					"maxclass" : "panel",
					"mode" : 0,
					"numinlets" : 1,
					"numoutlets" : 0,
					"patching_rect" : [ 1074.05835, 522.53064, 100.75, 20.0 ],
					"presentation" : 1,
					"presentation_rect" : [ 547.972473, 59.463989, 101.699997, 17.0 ],
					"proportion" : 0.39,
					"rounded" : 0,
					"style" : ""
				}

			}
, 			{
				"box" : 				{
					"fontface" : 1,
					"fontsize" : 9.5,
					"id" : "obj-18",
					"maxclass" : "comment",
					"numinlets" : 1,
					"numoutlets" : 0,
					"patching_rect" : [ 427.019531, 701.544617, 75.0, 17.0 ],
					"presentation" : 1,
					"presentation_rect" : [ 547.972473, 2.463989, 101.699997, 17.0 ],
					"style" : "",
					"text" : "Red Input 3/4",
					"textcolor" : [ 1.0, 0.0, 0.0, 1.0 ],
					"textjustification" : 1
				}

			}
, 			{
				"box" : 				{
					"angle" : 270.0,
					"bgcolor" : [ 0.0, 0.0, 0.0, 0.0 ],
					"border" : 1,
					"bordercolor" : [ 1.0, 0.0, 0.0, 1.0 ],
					"id" : "obj-20",
					"maxclass" : "panel",
					"mode" : 0,
					"numinlets" : 1,
					"numoutlets" : 0,
					"patching_rect" : [ 1099.93335, 465.094421, 91.0, 20.0 ],
					"presentation" : 1,
					"presentation_rect" : [ 547.972473, 2.463989, 101.699997, 17.0 ],
					"proportion" : 0.39,
					"rounded" : 0,
					"style" : "",
					"varname" : "TransportUIBox[2]"
				}

			}
, 			{
				"box" : 				{
					"angle" : 270.0,
					"bgcolor" : [ 0.0, 0.0, 0.0, 0.0 ],
					"border" : 2,
					"bordercolor" : [ 1.0, 0.0, 0.0, 1.0 ],
					"id" : "obj-21",
					"maxclass" : "panel",
					"mode" : 0,
					"numinlets" : 1,
					"numoutlets" : 0,
					"patching_rect" : [ 1039.408325, 569.925049, 113.0, 20.0 ],
					"presentation" : 1,
					"presentation_rect" : [ 412.855804, 48.797302, 91.0, 17.0 ],
					"proportion" : 0.39,
					"style" : "",
					"varname" : "TransportUIBox[3]"
				}

			}
, 			{
				"box" : 				{
					"comment" : "",
					"id" : "obj-3",
					"index" : 4,
					"maxclass" : "inlet",
					"numinlets" : 0,
					"numoutlets" : 1,
					"outlettype" : [ "signal" ],
					"patching_rect" : [ 749.352905, 31.333334, 30.0, 30.0 ],
					"presentation_rect" : [ 749.352905, 31.333334, 30.0, 30.0 ],
					"style" : ""
				}

			}
, 			{
				"box" : 				{
					"comment" : "",
					"id" : "obj-2",
					"index" : 3,
					"maxclass" : "inlet",
					"numinlets" : 0,
					"numoutlets" : 1,
					"outlettype" : [ "signal" ],
					"patching_rect" : [ 675.352905, 31.333334, 30.0, 30.0 ],
					"presentation_rect" : [ 675.352905, 31.333334, 30.0, 30.0 ],
					"style" : ""
				}

			}
, 			{
				"box" : 				{
					"comment" : "",
					"id" : "obj-1",
					"index" : 2,
					"maxclass" : "inlet",
					"numinlets" : 0,
					"numoutlets" : 1,
					"outlettype" : [ "" ],
					"patching_rect" : [ 410.352905, 40.0, 30.0, 30.0 ],
					"presentation_rect" : [ 410.352905, 40.0, 30.0, 30.0 ],
					"style" : ""
				}

			}
, 			{
				"box" : 				{
					"bgcolor" : [ 0.0, 0.019608, 0.078431, 0.0 ],
					"coldcolor" : [ 1.0, 0.0, 0.0, 0.18 ],
					"hotcolor" : [ 1.0, 0.0, 0.0, 0.0 ],
					"id" : "obj-61",
					"inactivecoldcolor" : [ 0.509804, 0.509804, 0.509804, 0.0 ],
					"inactivewarmcolor" : [ 0.584314, 0.584314, 0.584314, 0.0 ],
					"maxclass" : "live.meter~",
					"numinlets" : 1,
					"numoutlets" : 1,
					"orientation" : 1,
					"outlettype" : [ "list" ],
					"overloadcolor" : [ 1.0, 0.0, 0.0, 1.0 ],
					"patching_rect" : [ 700.019531, 121.094421, 30.0, 14.0 ],
					"presentation" : 1,
					"presentation_rect" : [ 307.866699, 12.463989, 30.0, 17.0 ],
					"slidercolor" : [ 0.0, 0.019608, 0.078431, 0.0 ],
					"varname" : "rExtFxMeter",
					"warmcolor" : [ 1.0, 0.0, 0.0, 1.0 ]
				}

			}
, 			{
				"box" : 				{
					"bgcolor" : [ 0.0, 0.019608, 0.078431, 0.0 ],
					"coldcolor" : [ 1.0, 0.0, 0.0, 0.18 ],
					"hotcolor" : [ 1.0, 0.0, 0.0, 1.0 ],
					"id" : "obj-19",
					"inactivecoldcolor" : [ 0.509804, 0.509804, 0.509804, 0.0 ],
					"inactivewarmcolor" : [ 0.584314, 0.584314, 0.584314, 0.0 ],
					"maxclass" : "live.meter~",
					"numinlets" : 1,
					"numoutlets" : 1,
					"orientation" : 1,
					"outlettype" : [ "list" ],
					"overloadcolor" : [ 1.0, 0.0, 0.0, 1.0 ],
					"patching_rect" : [ 630.727905, 121.094421, 30.0, 14.0 ],
					"presentation" : 1,
					"presentation_rect" : [ 307.866699, 31.463989, 30.0, 17.0 ],
					"slidercolor" : [ 0.0, 0.019608, 0.078431, 0.0 ],
					"warmcolor" : [ 1.0, 0.0, 0.0, 1.0 ]
				}

			}
, 			{
				"box" : 				{
					"id" : "obj-436",
					"linecolor" : [ 1.0, 0.0, 0.0, 1.0 ],
					"maxclass" : "live.line",
					"numinlets" : 1,
					"numoutlets" : 0,
					"patching_rect" : [ 474.0, 897.522339, 14.6, 156.422134 ],
					"presentation" : 1,
					"presentation_rect" : [ 75.200012, 43.463989, 5.0, 6.0 ]
				}

			}
, 			{
				"box" : 				{
					"id" : "obj-434",
					"linecolor" : [ 1.0, 0.0, 0.0, 1.0 ],
					"maxclass" : "live.line",
					"numinlets" : 1,
					"numoutlets" : 0,
					"patching_rect" : [ 432.0, 908.0, 14.6, 156.422134 ],
					"presentation" : 1,
					"presentation_rect" : [ 75.200012, 18.713989, 5.0, 6.0 ]
				}

			}
, 			{
				"box" : 				{
					"id" : "obj-430",
					"maxclass" : "message",
					"numinlets" : 2,
					"numoutlets" : 1,
					"outlettype" : [ "" ],
					"patching_rect" : [ 322.352905, 356.177673, 122.0, 22.0 ],
					"presentation_rect" : [ 322.352905, 356.177673, 122.0, 22.0 ],
					"style" : "",
					"text" : "linecolor #4 #5 #6 $1"
				}

			}
, 			{
				"box" : 				{
					"id" : "obj-428",
					"maxclass" : "message",
					"numinlets" : 2,
					"numoutlets" : 1,
					"outlettype" : [ "" ],
					"patching_rect" : [ 171.75, 356.177673, 122.0, 22.0 ],
					"presentation_rect" : [ 171.75, 356.177673, 122.0, 22.0 ],
					"style" : "",
					"text" : "linecolor #4 #5 #6 $1"
				}

			}
, 			{
				"box" : 				{
					"id" : "obj-196",
					"linecolor" : [ 1.0, 0.0, 0.0, 1.0 ],
					"maxclass" : "live.line",
					"numinlets" : 1,
					"numoutlets" : 0,
					"patching_rect" : [ 368.102844, 773.808289, 192.833344, 5.0 ],
					"presentation" : 1,
					"presentation_rect" : [ 75.200012, 24.463989, 126.25, 5.0 ],
					"varname" : "rExtFxLine"
				}

			}
, 			{
				"box" : 				{
					"id" : "obj-195",
					"linecolor" : [ 1.0, 0.0, 0.0, 0.0 ],
					"maxclass" : "live.line",
					"numinlets" : 1,
					"numoutlets" : 0,
					"patching_rect" : [ 112.352905, 579.544617, 192.833344, 5.0 ],
					"presentation" : 1,
					"presentation_rect" : [ 75.200012, 43.463989, 125.983322, 5.0 ],
					"varname" : "rExtIn"
				}

			}
, 			{
				"box" : 				{
					"id" : "obj-194",
					"linecolor" : [ 1.0, 0.0, 0.0, 1.0 ],
					"maxclass" : "live.line",
					"numinlets" : 1,
					"numoutlets" : 0,
					"patching_rect" : [ 383.352905, 936.308289, 8.0, 64.583313 ],
					"presentation" : 1,
					"presentation_rect" : [ 75.200012, 65.797302, 5.25, 7.776476 ]
				}

			}
, 			{
				"box" : 				{
					"id" : "obj-192",
					"linecolor" : [ 1.0, 0.0, 0.0, 1.0 ],
					"maxclass" : "live.line",
					"numinlets" : 1,
					"numoutlets" : 0,
					"patching_rect" : [ 121.352905, 538.808289, 8.0, 28.083313 ],
					"presentation" : 1,
					"presentation_rect" : [ 75.200012, 24.463989, 5.0, 19.5 ]
				}

			}
, 			{
				"box" : 				{
					"id" : "obj-186",
					"linecolor" : [ 1.0, 0.0, 0.0, 1.0 ],
					"maxclass" : "live.line",
					"numinlets" : 1,
					"numoutlets" : 0,
					"patching_rect" : [ 287.0, 897.522339, 14.6, 156.422134 ],
					"presentation" : 1,
					"presentation_rect" : [ 3.247101, 18.713989, 5.0, 59.109787 ]
				}

			}
, 			{
				"box" : 				{
					"fontface" : 1,
					"fontsize" : 9.5,
					"id" : "obj-181",
					"maxclass" : "comment",
					"numinlets" : 1,
					"numoutlets" : 0,
					"patching_rect" : [ 762.352905, 651.099976, 91.0, 17.0 ],
					"presentation" : 1,
					"presentation_rect" : [ 65.083344, 48.797302, 91.0, 17.0 ],
					"style" : "",
					"text" : "Bypass",
					"textcolor" : [ 1.0, 0.0, 0.0, 1.0 ],
					"textjustification" : 1,
					"varname" : "rFxName"
				}

			}
, 			{
				"box" : 				{
					"color" : [ 0.952941, 0.564706, 0.098039, 1.0 ],
					"id" : "obj-180",
					"maxclass" : "newobj",
					"numinlets" : 0,
					"numoutlets" : 1,
					"outlettype" : [ "" ],
					"patching_rect" : [ 778.019531, 538.808289, 65.0, 22.0 ],
					"presentation_linecount" : 4,
					"presentation_rect" : [ 778.019531, 538.808289, 31.0, 22.0 ],
					"style" : "",
					"text" : "r #3"
				}

			}
, 			{
				"box" : 				{
					"fontface" : 1,
					"fontsize" : 9.5,
					"id" : "obj-158",
					"maxclass" : "comment",
					"numinlets" : 1,
					"numoutlets" : 0,
					"patching_rect" : [ 550.019531, 717.308289, 82.0, 17.0 ],
					"presentation" : 1,
					"presentation_rect" : [ 201.200012, 12.463989, 101.699997, 17.0 ],
					"style" : "",
					"text" : "Red Output 3/4",
					"textcolor" : [ 1.0, 0.0, 0.0, 1.0 ],
					"textjustification" : 1,
					"varname" : "rExtFxText"
				}

			}
, 			{
				"box" : 				{
					"angle" : 270.0,
					"bgcolor" : [ 0.0, 0.0, 0.0, 0.0 ],
					"border" : 1,
					"bordercolor" : [ 1.0, 0.0, 0.0, 1.0 ],
					"id" : "obj-159",
					"maxclass" : "panel",
					"mode" : 0,
					"numinlets" : 1,
					"numoutlets" : 0,
					"patching_rect" : [ 1060.352905, 801.308289, 100.75, 20.0 ],
					"presentation" : 1,
					"presentation_rect" : [ 201.200012, 12.463989, 101.699997, 17.0 ],
					"proportion" : 0.39,
					"rounded" : 0,
					"style" : "",
					"varname" : "rExtFxBox"
				}

			}
, 			{
				"box" : 				{
					"fontface" : 1,
					"fontsize" : 9.5,
					"id" : "obj-115",
					"maxclass" : "comment",
					"numinlets" : 1,
					"numoutlets" : 0,
					"patching_rect" : [ 459.519531, 662.308289, 75.0, 17.0 ],
					"presentation" : 1,
					"presentation_rect" : [ 201.200012, 31.463989, 101.699997, 17.0 ],
					"style" : "",
					"text" : "Red Input 3/4",
					"textcolor" : [ 1.0, 0.0, 0.0, 1.0 ],
					"textjustification" : 1,
					"varname" : "transportUITitle[3]"
				}

			}
, 			{
				"box" : 				{
					"angle" : 270.0,
					"bgcolor" : [ 0.0, 0.0, 0.0, 0.0 ],
					"border" : 1,
					"bordercolor" : [ 1.0, 0.0, 0.0, 1.0 ],
					"id" : "obj-100",
					"maxclass" : "panel",
					"mode" : 0,
					"numinlets" : 1,
					"numoutlets" : 0,
					"patching_rect" : [ 1060.352905, 829.099915, 91.0, 20.0 ],
					"presentation" : 1,
					"presentation_rect" : [ 201.200012, 31.463989, 101.699997, 17.0 ],
					"proportion" : 0.39,
					"rounded" : 0,
					"style" : ""
				}

			}
, 			{
				"box" : 				{
					"angle" : 270.0,
					"bgcolor" : [ 0.0, 0.0, 0.0, 0.0 ],
					"border" : 2,
					"bordercolor" : [ 1.0, 0.0, 0.0, 1.0 ],
					"id" : "obj-182",
					"maxclass" : "panel",
					"mode" : 0,
					"numinlets" : 1,
					"numoutlets" : 0,
					"patching_rect" : [ 1039.408325, 733.266541, 113.0, 20.0 ],
					"presentation" : 1,
					"presentation_rect" : [ 65.083344, 48.797302, 91.0, 17.0 ],
					"proportion" : 0.39,
					"style" : "",
					"varname" : "TransportUIBox[5]"
				}

			}
, 			{
				"box" : 				{
					"id" : "obj-208",
					"maxclass" : "newobj",
					"numinlets" : 2,
					"numoutlets" : 1,
					"outlettype" : [ "float" ],
					"patching_rect" : [ 229.936249, 233.344299, 32.0, 22.0 ],
					"presentation_rect" : [ 229.936249, 233.344299, 32.0, 22.0 ],
					"style" : "",
					"text" : "!- 1."
				}

			}
, 			{
				"box" : 				{
					"id" : "obj-204",
					"maxclass" : "newobj",
					"numinlets" : 2,
					"numoutlets" : 1,
					"outlettype" : [ "float" ],
					"patching_rect" : [ 316.352905, 100.0, 42.0, 22.0 ],
					"presentation_rect" : [ 316.352905, 100.0, 42.0, 22.0 ],
					"style" : "",
					"text" : "* 0.01"
				}

			}
, 			{
				"box" : 				{
					"comment" : "",
					"id" : "obj-437",
					"index" : 1,
					"maxclass" : "inlet",
					"numinlets" : 0,
					"numoutlets" : 1,
					"outlettype" : [ "" ],
					"patching_rect" : [ 316.352905, 40.0, 30.0, 30.0 ],
					"presentation_rect" : [ 316.352905, 40.0, 30.0, 30.0 ],
					"style" : ""
				}

			}
 ],
		"lines" : [ 			{
				"patchline" : 				{
					"destination" : [ "obj-34", 0 ],
					"source" : [ "obj-1", 0 ]
				}

			}
, 			{
				"patchline" : 				{
					"destination" : [ "obj-22", 0 ],
					"order" : 4,
					"source" : [ "obj-13", 0 ]
				}

			}
, 			{
				"patchline" : 				{
					"destination" : [ "obj-23", 0 ],
					"order" : 5,
					"source" : [ "obj-13", 0 ]
				}

			}
, 			{
				"patchline" : 				{
					"destination" : [ "obj-25", 0 ],
					"order" : 2,
					"source" : [ "obj-13", 0 ]
				}

			}
, 			{
				"patchline" : 				{
					"destination" : [ "obj-28", 0 ],
					"order" : 0,
					"source" : [ "obj-13", 0 ]
				}

			}
, 			{
				"patchline" : 				{
					"destination" : [ "obj-29", 0 ],
					"order" : 6,
					"source" : [ "obj-13", 0 ]
				}

			}
, 			{
				"patchline" : 				{
					"destination" : [ "obj-31", 0 ],
					"order" : 1,
					"source" : [ "obj-13", 0 ]
				}

			}
, 			{
				"patchline" : 				{
					"destination" : [ "obj-9", 0 ],
					"order" : 3,
					"source" : [ "obj-13", 0 ]
				}

			}
, 			{
				"patchline" : 				{
					"destination" : [ "obj-15", 0 ],
					"order" : 0,
					"source" : [ "obj-180", 0 ]
				}

			}
, 			{
				"patchline" : 				{
					"destination" : [ "obj-181", 0 ],
					"order" : 1,
					"source" : [ "obj-180", 0 ]
				}

			}
, 			{
				"patchline" : 				{
					"destination" : [ "obj-19", 0 ],
					"order" : 1,
					"source" : [ "obj-2", 0 ]
				}

			}
, 			{
				"patchline" : 				{
					"destination" : [ "obj-7", 0 ],
					"order" : 0,
					"source" : [ "obj-2", 0 ]
				}

			}
, 			{
				"patchline" : 				{
					"destination" : [ "obj-208", 0 ],
					"order" : 1,
					"source" : [ "obj-204", 0 ]
				}

			}
, 			{
				"patchline" : 				{
					"destination" : [ "obj-430", 0 ],
					"order" : 0,
					"source" : [ "obj-204", 0 ]
				}

			}
, 			{
				"patchline" : 				{
					"destination" : [ "obj-428", 0 ],
					"source" : [ "obj-208", 0 ]
				}

			}
, 			{
				"patchline" : 				{
					"destination" : [ "obj-158", 0 ],
					"order" : 1,
					"source" : [ "obj-22", 0 ]
				}

			}
, 			{
				"patchline" : 				{
					"destination" : [ "obj-16", 0 ],
					"order" : 0,
					"source" : [ "obj-22", 0 ]
				}

			}
, 			{
				"patchline" : 				{
					"destination" : [ "obj-115", 0 ],
					"order" : 0,
					"source" : [ "obj-23", 0 ]
				}

			}
, 			{
				"patchline" : 				{
					"destination" : [ "obj-18", 0 ],
					"order" : 1,
					"source" : [ "obj-23", 0 ]
				}

			}
, 			{
				"patchline" : 				{
					"destination" : [ "obj-27", 0 ],
					"source" : [ "obj-24", 0 ]
				}

			}
, 			{
				"patchline" : 				{
					"destination" : [ "obj-115", 0 ],
					"order" : 6,
					"source" : [ "obj-25", 0 ]
				}

			}
, 			{
				"patchline" : 				{
					"destination" : [ "obj-15", 0 ],
					"order" : 0,
					"source" : [ "obj-25", 0 ]
				}

			}
, 			{
				"patchline" : 				{
					"destination" : [ "obj-158", 0 ],
					"order" : 5,
					"source" : [ "obj-25", 0 ]
				}

			}
, 			{
				"patchline" : 				{
					"destination" : [ "obj-16", 0 ],
					"order" : 4,
					"source" : [ "obj-25", 0 ]
				}

			}
, 			{
				"patchline" : 				{
					"destination" : [ "obj-18", 0 ],
					"order" : 7,
					"source" : [ "obj-25", 0 ]
				}

			}
, 			{
				"patchline" : 				{
					"destination" : [ "obj-181", 0 ],
					"order" : 1,
					"source" : [ "obj-25", 0 ]
				}

			}
, 			{
				"patchline" : 				{
					"destination" : [ "obj-184", 0 ],
					"order" : 2,
					"source" : [ "obj-25", 0 ]
				}

			}
, 			{
				"patchline" : 				{
					"destination" : [ "obj-43", 0 ],
					"order" : 3,
					"source" : [ "obj-25", 0 ]
				}

			}
, 			{
				"patchline" : 				{
					"destination" : [ "obj-100", 0 ],
					"order" : 2,
					"source" : [ "obj-28", 0 ]
				}

			}
, 			{
				"patchline" : 				{
					"destination" : [ "obj-159", 0 ],
					"order" : 3,
					"source" : [ "obj-28", 0 ]
				}

			}
, 			{
				"patchline" : 				{
					"destination" : [ "obj-17", 0 ],
					"order" : 1,
					"source" : [ "obj-28", 0 ]
				}

			}
, 			{
				"patchline" : 				{
					"destination" : [ "obj-182", 0 ],
					"order" : 4,
					"source" : [ "obj-28", 0 ]
				}

			}
, 			{
				"patchline" : 				{
					"destination" : [ "obj-183", 0 ],
					"order" : 6,
					"source" : [ "obj-28", 0 ]
				}

			}
, 			{
				"patchline" : 				{
					"destination" : [ "obj-20", 0 ],
					"order" : 0,
					"source" : [ "obj-28", 0 ]
				}

			}
, 			{
				"patchline" : 				{
					"destination" : [ "obj-21", 0 ],
					"order" : 5,
					"source" : [ "obj-28", 0 ]
				}

			}
, 			{
				"patchline" : 				{
					"destination" : [ "obj-44", 0 ],
					"order" : 7,
					"source" : [ "obj-28", 0 ]
				}

			}
, 			{
				"patchline" : 				{
					"destination" : [ "obj-10", 0 ],
					"order" : 1,
					"source" : [ "obj-29", 0 ]
				}

			}
, 			{
				"patchline" : 				{
					"destination" : [ "obj-12", 0 ],
					"order" : 0,
					"source" : [ "obj-29", 0 ]
				}

			}
, 			{
				"patchline" : 				{
					"destination" : [ "obj-14", 0 ],
					"order" : 9,
					"source" : [ "obj-29", 0 ]
				}

			}
, 			{
				"patchline" : 				{
					"destination" : [ "obj-186", 0 ],
					"order" : 7,
					"source" : [ "obj-29", 0 ]
				}

			}
, 			{
				"patchline" : 				{
					"destination" : [ "obj-194", 0 ],
					"order" : 5,
					"source" : [ "obj-29", 0 ]
				}

			}
, 			{
				"patchline" : 				{
					"destination" : [ "obj-196", 0 ],
					"order" : 6,
					"source" : [ "obj-29", 0 ]
				}

			}
, 			{
				"patchline" : 				{
					"destination" : [ "obj-434", 0 ],
					"order" : 4,
					"source" : [ "obj-29", 0 ]
				}

			}
, 			{
				"patchline" : 				{
					"destination" : [ "obj-436", 0 ],
					"order" : 3,
					"source" : [ "obj-29", 0 ]
				}

			}
, 			{
				"patchline" : 				{
					"destination" : [ "obj-45", 0 ],
					"order" : 2,
					"source" : [ "obj-29", 0 ]
				}

			}
, 			{
				"patchline" : 				{
					"destination" : [ "obj-47", 0 ],
					"order" : 8,
					"source" : [ "obj-29", 0 ]
				}

			}
, 			{
				"patchline" : 				{
					"destination" : [ "obj-48", 0 ],
					"order" : 10,
					"source" : [ "obj-29", 0 ]
				}

			}
, 			{
				"patchline" : 				{
					"destination" : [ "obj-6", 0 ],
					"order" : 0,
					"source" : [ "obj-3", 0 ]
				}

			}
, 			{
				"patchline" : 				{
					"destination" : [ "obj-61", 0 ],
					"order" : 1,
					"source" : [ "obj-3", 0 ]
				}

			}
, 			{
				"patchline" : 				{
					"destination" : [ "obj-19", 0 ],
					"order" : 3,
					"source" : [ "obj-31", 0 ]
				}

			}
, 			{
				"patchline" : 				{
					"destination" : [ "obj-6", 0 ],
					"order" : 0,
					"source" : [ "obj-31", 0 ]
				}

			}
, 			{
				"patchline" : 				{
					"destination" : [ "obj-61", 0 ],
					"order" : 2,
					"source" : [ "obj-31", 0 ]
				}

			}
, 			{
				"patchline" : 				{
					"destination" : [ "obj-7", 0 ],
					"order" : 1,
					"source" : [ "obj-31", 0 ]
				}

			}
, 			{
				"patchline" : 				{
					"destination" : [ "obj-26", 0 ],
					"source" : [ "obj-34", 0 ]
				}

			}
, 			{
				"patchline" : 				{
					"destination" : [ "obj-5", 0 ],
					"source" : [ "obj-4", 0 ]
				}

			}
, 			{
				"patchline" : 				{
					"destination" : [ "obj-192", 0 ],
					"order" : 1,
					"source" : [ "obj-428", 0 ]
				}

			}
, 			{
				"patchline" : 				{
					"destination" : [ "obj-42", 0 ],
					"order" : 0,
					"source" : [ "obj-428", 0 ]
				}

			}
, 			{
				"patchline" : 				{
					"destination" : [ "obj-11", 0 ],
					"order" : 0,
					"source" : [ "obj-430", 0 ]
				}

			}
, 			{
				"patchline" : 				{
					"destination" : [ "obj-195", 0 ],
					"order" : 1,
					"source" : [ "obj-430", 0 ]
				}

			}
, 			{
				"patchline" : 				{
					"destination" : [ "obj-204", 0 ],
					"source" : [ "obj-437", 0 ]
				}

			}
, 			{
				"patchline" : 				{
					"destination" : [ "obj-24", 0 ],
					"source" : [ "obj-5", 1 ]
				}

			}
, 			{
				"patchline" : 				{
					"destination" : [ "obj-27", 0 ],
					"source" : [ "obj-5", 2 ]
				}

			}
, 			{
				"patchline" : 				{
					"destination" : [ "obj-8", 0 ],
					"source" : [ "obj-5", 0 ]
				}

			}
, 			{
				"patchline" : 				{
					"destination" : [ "obj-27", 0 ],
					"source" : [ "obj-8", 0 ]
				}

			}
, 			{
				"patchline" : 				{
					"destination" : [ "obj-184", 0 ],
					"order" : 0,
					"source" : [ "obj-9", 0 ]
				}

			}
, 			{
				"patchline" : 				{
					"destination" : [ "obj-43", 0 ],
					"order" : 1,
					"source" : [ "obj-9", 0 ]
				}

			}
 ],
		"styles" : [ 			{
				"name" : "AudioStatus_Menu",
				"default" : 				{
					"bgfillcolor" : 					{
						"type" : "color",
						"color" : [ 0.294118, 0.313726, 0.337255, 1 ],
						"color1" : [ 0.454902, 0.462745, 0.482353, 0.0 ],
						"color2" : [ 0.290196, 0.309804, 0.301961, 1.0 ],
						"angle" : 270.0,
						"proportion" : 0.39,
						"autogradient" : 0
					}

				}
,
				"parentstyle" : "",
				"multi" : 0
			}
, 			{
				"name" : "Luca",
				"default" : 				{
					"accentcolor" : [ 0.32549, 0.345098, 0.372549, 1.0 ],
					"elementcolor" : [ 0.786675, 0.801885, 0.845022, 1.0 ],
					"fontname" : [ "Open Sans Semibold" ],
					"bgcolor" : [ 0.904179, 0.895477, 0.842975, 0.56 ],
					"bgfillcolor" : 					{
						"type" : "gradient",
						"color" : [ 0.290196, 0.309804, 0.301961, 1.0 ],
						"color1" : [ 0.862745, 0.870588, 0.878431, 1.0 ],
						"color2" : [ 0.65098, 0.666667, 0.662745, 1.0 ],
						"angle" : 270.0,
						"proportion" : 0.39,
						"autogradient" : 0
					}
,
					"selectioncolor" : [ 0.720698, 0.16723, 0.080014, 1.0 ],
					"color" : [ 0.475135, 0.293895, 0.251069, 1.0 ],
					"textcolor_inverse" : [ 0.239216, 0.254902, 0.278431, 1.0 ]
				}
,
				"parentstyle" : "",
				"multi" : 0
			}
, 			{
				"name" : "MD Blue",
				"default" : 				{
					"textjustification" : [ 0 ],
					"accentcolor" : [ 0.403922, 0.498039, 0.666667, 1.0 ],
					"fontsize" : [ 13.0 ],
					"elementcolor" : [ 0.326117, 0.358336, 0.307924, 1.0 ],
					"fontname" : [ "Trebuchet MS" ],
					"bgcolor" : [ 0.095481, 0.100396, 0.100293, 1.0 ],
					"patchlinecolor" : [ 0.011765, 0.396078, 0.752941, 0.9 ]
				}
,
				"parentstyle" : "",
				"multi" : 0
			}
, 			{
				"name" : "helpfile_label-1",
				"default" : 				{
					"fontsize" : [ 13.0 ],
					"fontname" : [ "Arial" ],
					"textcolor" : [ 0.501961, 0.501961, 0.501961, 1.0 ]
				}
,
				"parentstyle" : "",
				"multi" : 0
			}
, 			{
				"name" : "newobjBlue-1",
				"default" : 				{
					"accentcolor" : [ 0.317647, 0.654902, 0.976471, 1.0 ]
				}
,
				"parentstyle" : "",
				"multi" : 0
			}
, 			{
				"name" : "newobjBrown-1",
				"default" : 				{
					"accentcolor" : [ 0.654902, 0.572549, 0.376471, 1.0 ]
				}
,
				"parentstyle" : "",
				"multi" : 0
			}
, 			{
				"name" : "newobjCyan-1",
				"default" : 				{
					"accentcolor" : [ 0.029546, 0.773327, 0.821113, 1.0 ]
				}
,
				"parentstyle" : "",
				"multi" : 0
			}
, 			{
				"name" : "newobjGreen-1",
				"default" : 				{
					"accentcolor" : [ 0.0, 0.533333, 0.168627, 1.0 ]
				}
,
				"parentstyle" : "",
				"multi" : 0
			}
, 			{
				"name" : "newobjRed-1",
				"default" : 				{
					"accentcolor" : [ 0.784314, 0.145098, 0.023529, 1.0 ]
				}
,
				"parentstyle" : "",
				"multi" : 0
			}
, 			{
				"name" : "newobjYellow-1",
				"default" : 				{
					"accentcolor" : [ 0.82517, 0.78181, 0.059545, 1.0 ],
					"fontsize" : [ 12.059008 ]
				}
,
				"parentstyle" : "",
				"multi" : 0
			}
, 			{
				"name" : "numberGold-1",
				"default" : 				{
					"accentcolor" : [ 0.764706, 0.592157, 0.101961, 1.0 ]
				}
,
				"parentstyle" : "",
				"multi" : 0
			}
, 			{
				"name" : "panelViolet",
				"default" : 				{
					"bgfillcolor" : 					{
						"type" : "color",
						"color" : [ 0.372549, 0.196078, 0.486275, 0.2 ],
						"color1" : [ 0.454902, 0.462745, 0.482353, 1.0 ],
						"color2" : [ 0.290196, 0.309804, 0.301961, 1.0 ],
						"angle" : 270.0,
						"proportion" : 0.39,
						"autogradient" : 0
					}

				}
,
				"parentstyle" : "",
				"multi" : 0
			}
, 			{
				"name" : "scope~001",
				"default" : 				{
					"accentcolor" : [ 0.439216, 0.447059, 0.47451, 1.0 ],
					"color" : [ 0.960784, 0.827451, 0.156863, 1.0 ]
				}
,
				"parentstyle" : "",
				"multi" : 0
			}
, 			{
				"name" : "sliderGold-1",
				"default" : 				{
					"accentcolor" : [ 0.764706, 0.592157, 0.101961, 1.0 ],
					"color" : [ 0.907107, 0.934609, 0.842715, 1.0 ]
				}
,
				"parentstyle" : "",
				"multi" : 0
			}
 ]
	}

}
